<?xml version="1.0" encoding="utf-8"?>
<!-- Generator: Adobe Illustrator 23.0.1, SVG Export Plug-In . SVG Version: 6.00 Build 0)  -->
<svg version="1.1" id="Layer_8" xmlns="http://www.w3.org/2000/svg" xmlns:xlink="http://www.w3.org/1999/xlink" x="0px" y="0px"
	 viewBox="0 0 1190.55 841.89" style="enable-background:new 0 0 1190.55 841.89;" xml:space="preserve">
<path id="Text" d="M232.24,733.48v33.84c0,2.34-1.74,4.08-4.08,4.08s-4.08-1.74-4.08-4.08v-13.8h-14.04v13.8
	c0,2.34-1.68,4.08-4.02,4.08c-2.4,0-4.14-1.74-4.14-4.08v-33.84c0-2.16,1.86-4.08,4.14-4.08c2.16,0,4.02,1.92,4.02,4.08v11.94h14.04
	v-11.94c0-2.16,1.92-4.08,4.08-4.08C230.38,729.4,232.24,731.32,232.24,733.48z M252.46,772.42c-9.54,0-17.22-9.84-17.22-21.96
	c0-12.12,7.68-22.02,17.22-22.02s17.28,9.9,17.28,22.02C269.74,762.52,262.06,772.42,252.46,772.42z M252.46,736.9
	c-4.74,0-8.82,6.12-8.82,13.56c0,7.44,4.08,13.56,8.82,13.56c4.8,0,8.82-6.06,8.82-13.56C261.28,742.96,257.26,736.9,252.46,736.9z
	 M308.8,733.54v33.72c0,2.28-1.8,4.14-4.02,4.14c-2.22,0-4.08-1.86-4.08-4.14v-16.68l-5.22,16.92l-0.06,0.12
	c-0.42,0.9-1.56,3.78-4.68,3.78c-3.06,0-4.2-2.88-4.62-3.78l-0.06-0.12l-5.22-16.92v16.68c0,2.28-1.86,4.14-4.08,4.14
	c-2.22,0-4.02-1.86-4.02-4.14v-33.72c0-2.28,1.86-4.14,4.14-4.14h2.7c1.68,0,3.18,1.02,3.66,2.58l0.06,0.06l7.44,22.68l7.5-22.68
	l0.06-0.06c0.48-1.56,1.98-2.58,3.66-2.58h2.7C306.94,729.4,308.8,731.26,308.8,733.54z M342.15,767.32c0,2.1-1.86,4.08-4.08,4.08
	h-22.2c-2.22,0-4.08-1.98-4.08-4.08v-33.9c0-0.36,0.06-0.72,0.12-1.02c0.42-1.8,1.92-3,3.96-3h20.22c2.52,0,4.2,1.68,4.2,4.08
	c0,2.34-1.74,4.02-4.2,4.02h-16.14v7.92h10.86c2.22,0,4.08,1.86,4.08,4.02c0,2.34-1.62,4.08-4.08,4.08h-10.86v9.72h18.12
	C340.41,763.24,342.15,764.98,342.15,767.32z M370.23,771.4c-2.34,0-4.08-1.74-4.08-4.08v-33.84c0-2.34,1.74-4.08,4.08-4.08
	s4.14,1.74,4.14,4.08v33.84C374.38,769.66,372.57,771.4,370.23,771.4z M392.73,771.4c-6.3,0-12.12-3.54-14.58-9.12
	c-1.26-2.52-0.36-5.28,2.16-5.94c1.8-0.72,3.66,0.12,4.68,1.86c1.86,3.42,4.62,5.22,7.74,5.22c4.14,0,6.78-1.8,6.78-4.38
	c0-2.76-0.96-3.42-7.62-4.62c-5.52-1.02-14.52-2.58-14.52-12.3c0-7.5,6.06-12.72,14.82-12.72c5.76,0,10.32,3.3,12.9,9.12
	c1.14,2.52-0.12,5.28-2.64,5.76c-1.8,0.42-3.42-0.36-4.56-2.22c-1.38-2.22-2.58-4.74-5.7-4.74c-4.32,0-6.84,1.92-6.84,4.8
	c0,2.34,1.8,3.48,8.1,4.8c5.22,0.9,14.04,2.22,14.04,12.12C407.49,766.36,401.31,771.4,392.73,771.4z M476.13,734.92l-8.64,33.48
	c-0.48,1.8-2.04,3-3.84,3h-0.18c-1.8,0-3.42-1.2-3.9-2.94l-5.64-19.74l-5.64,19.74c-0.54,1.74-2.16,2.94-3.9,2.94h-0.18
	c-1.8,0-3.36-1.2-3.9-3.06l-8.58-33.36c-1.68-6.12,6.48-7.5,7.74-2.52l5.1,19.26l5.34-19.32c0.48-1.74,1.92-2.94,3.54-2.94h0.9
	c1.68,0,3.12,1.2,3.54,2.94l5.4,19.32l5.04-19.26C469.71,727.24,477.63,729.28,476.13,734.92z M509.67,733.48v33.84
	c0,2.34-1.74,4.08-4.08,4.08s-4.08-1.74-4.08-4.08v-13.8h-14.04v13.8c0,2.34-1.68,4.08-4.02,4.08c-2.4,0-4.14-1.74-4.14-4.08v-33.84
	c0-2.16,1.86-4.08,4.14-4.08c2.16,0,4.02,1.92,4.02,4.08v11.94h14.04v-11.94c0-2.16,1.92-4.08,4.08-4.08
	C507.81,729.4,509.67,731.32,509.67,733.48z M543.03,767.32c0,2.1-1.86,4.08-4.08,4.08h-22.2c-2.22,0-4.08-1.98-4.08-4.08v-33.9
	c0-0.36,0.06-0.72,0.12-1.02c0.42-1.8,1.92-3,3.96-3h20.22c2.52,0,4.2,1.68,4.2,4.08c0,2.34-1.74,4.02-4.2,4.02h-16.14v7.92h10.86
	c2.22,0,4.08,1.86,4.08,4.02c0,2.34-1.62,4.08-4.08,4.08h-10.86v9.72h18.12C541.29,763.24,543.03,764.98,543.03,767.32z
	 M574.71,771.1c-2.16,0.9-4.38,0.06-5.4-2.04l-7.74-15.78h-7.32v13.92c0,2.4-1.68,4.2-4.08,4.2c-2.28,0-4.14-1.8-4.14-4.2v-33.72
	c0-2.34,1.74-4.08,4.08-4.08h14.76c6.48,0,11.88,5.34,11.88,12c0,4.68-2.76,8.7-6.66,10.62l6.54,13.44
	C577.65,767.68,576.81,770.14,574.71,771.1z M554.25,745.12h10.62c1.92,0,3.72-1.8,3.72-3.72c0-2.04-1.74-3.78-3.72-3.78h-10.62
	V745.12z M610.41,767.32c0,2.1-1.86,4.08-4.08,4.08h-22.2c-2.22,0-4.08-1.98-4.08-4.08v-33.9c0-0.36,0.06-0.72,0.12-1.02
	c0.42-1.8,1.92-3,3.96-3h20.22c2.52,0,4.2,1.68,4.2,4.08c0,2.34-1.74,4.02-4.2,4.02h-16.14v7.92h10.86c2.22,0,4.08,1.86,4.08,4.02
	c0,2.34-1.62,4.08-4.08,4.08h-10.86v9.72h18.12C608.67,763.24,610.41,764.98,610.41,767.32z M665.91,736.06l-11.88,15.54v15.6
	c0,2.4-1.74,4.2-4.02,4.2c-2.34,0-4.08-1.8-4.08-4.2v-15.72l-10.74-15.72c-1.32-1.98-0.96-4.5,0.9-5.76
	c1.92-1.2,4.32-0.66,5.64,1.26l8.28,12.24l9.48-12.42c1.44-1.92,3.9-2.28,5.7-0.9C667.17,731.62,667.41,734.14,665.91,736.06z
	 M687.09,772.42c-9.54,0-17.22-9.84-17.22-21.96c0-12.12,7.68-22.02,17.22-22.02c9.54,0,17.28,9.9,17.28,22.02
	C704.37,762.52,696.69,772.42,687.09,772.42z M687.09,736.9c-4.74,0-8.82,6.12-8.82,13.56c0,7.44,4.08,13.56,8.82,13.56
	c4.8,0,8.82-6.06,8.82-13.56C695.91,742.96,691.89,736.9,687.09,736.9z M738.09,733.66v23.52c0,8.88-6.12,14.76-15.36,14.76
	c-8.94,0-15.36-6.06-15.36-14.76v-23.52c0-2.46,1.74-4.26,4.14-4.26c2.34,0,4.08,1.8,4.08,4.26v23.52c0,3.78,3,6.48,7.14,6.48
	c4.2,0,7.2-2.7,7.2-6.48v-23.52c0-2.46,1.74-4.26,4.08-4.26S738.09,731.2,738.09,733.66z M792.27,742.36
	c0,7.08-5.94,12.96-12.9,12.96h-9.06v11.88c0,2.34-1.8,4.2-4.08,4.2c-2.34,0-4.14-1.86-4.14-4.2v-33.72c0-2.34,1.74-4.08,4.08-4.08
	h13.2C786.33,729.4,792.27,735.28,792.27,742.36z M784.11,742.36c0-2.46-2.16-4.74-4.74-4.74h-9.06v9.36h9.06
	C781.95,746.98,784.11,744.82,784.11,742.36z M826.71,771.1c-2.46,0.96-4.68-0.48-5.34-2.22l-3.12-8.34h-11.94l-3.12,8.28
	c-0.84,2.22-3.06,3.12-5.34,2.4c-2.34-0.78-3-3.36-2.28-5.4l13.02-34.26c0.54-1.44,2.22-2.16,3.72-2.16s3.24,0.72,3.78,2.16
	L829.05,766C829.77,767.98,828.75,770.32,826.71,771.1z M812.31,744.52l-2.88,7.74h5.7L812.31,744.52z M860.97,771.1
	c-2.16,0.9-4.38,0.06-5.4-2.04l-7.74-15.78h-7.32v13.92c0,2.4-1.68,4.2-4.08,4.2c-2.28,0-4.14-1.8-4.14-4.2v-33.72
	c0-2.34,1.74-4.08,4.08-4.08h14.76c6.48,0,11.88,5.34,11.88,12c0,4.68-2.76,8.7-6.66,10.62l6.54,13.44
	C863.91,767.68,863.07,770.14,860.97,771.1z M840.51,745.12h10.62c1.92,0,3.72-1.8,3.72-3.72c0-2.04-1.74-3.78-3.72-3.78h-10.62
	V745.12z M894.81,770.8c-2.1,1.2-4.5,0.54-5.94-1.56l-10.74-15.72l-3.66,3.84v9.84c0,2.4-1.8,4.2-4.08,4.2
	c-2.28,0-4.08-1.8-4.08-4.2v-33.6c0-2.34,1.8-4.2,4.08-4.2c2.28,0,4.08,1.86,4.08,4.2v12.18l13.86-14.28c1.8-1.68,4.26-1.8,6-0.18
	v0.06c1.68,1.56,1.56,4.14-0.3,5.82l-10.26,10.56l11.94,17.04C897.15,766.9,896.73,769.54,894.81,770.8z M924.63,771.4
	c-2.34,0-4.08-1.74-4.08-4.08v-33.84c0-2.34,1.74-4.08,4.08-4.08s4.14,1.74,4.14,4.08v33.84
	C928.77,769.66,926.97,771.4,924.63,771.4z M964.53,733.42c0,2.28-1.74,4.08-4.2,4.08h-7.86v29.7c0,2.34-1.8,4.2-4.02,4.2
	c-2.4,0-4.08-1.86-4.08-4.2v-29.7h-8.4c-2.46,0-4.2-1.8-4.2-4.08c0-2.22,1.74-4.02,4.2-4.02h24.36
	C962.79,729.4,964.53,731.2,964.53,733.42z"/>
<path id="Camper_Van" d="M454.08,650.78c4.6,0.98,8.98,3.35,12.46,6.7c1.73,1.68,3.28,3.58,4.48,5.68c1.19,2.1,2.07,4.39,2.41,6.78
	c0.11,0.81-0.45,1.55-1.25,1.67c-0.64,0.09-1.24-0.24-1.52-0.79l-0.01-0.02c-0.98-1.94-1.96-3.81-3.06-5.6
	c-1.11-1.79-2.31-3.52-3.75-5.06c-1.41-1.58-3.01-2.98-4.75-4.24c-1.74-1.26-3.61-2.36-5.61-3.29l-0.01,0
	c-0.48-0.23-0.69-0.8-0.46-1.28C453.2,650.9,453.66,650.68,454.08,650.78z M738.13,633.47c-0.23,0.35-0.14,0.81,0.2,1.05l0.02,0.02
	c0.58,0.39,1.15,0.68,1.71,0.95c0.56,0.28,1.11,0.52,1.67,0.77c0.56,0.24,1.13,0.47,1.72,0.7c0.59,0.23,1.2,0.45,1.91,0.62l0.01,0
	c0.1,0.02,0.22,0.02,0.32-0.03c0.26-0.11,0.37-0.41,0.26-0.67c-0.31-0.7-0.77-1.28-1.31-1.78c-0.54-0.5-1.14-0.93-1.79-1.25
	c-0.65-0.33-1.35-0.57-2.07-0.69c-0.72-0.13-1.46-0.16-2.2,0.01C738.41,633.2,738.24,633.3,738.13,633.47z M740.66,637.76
	c-0.18,0.18-0.19,0.47-0.01,0.66l0.04,0.04c0.32,0.33,0.64,0.62,0.96,0.86c0.32,0.26,0.65,0.45,0.96,0.69
	c0.63,0.46,1.24,0.89,1.98,1.16l0.04,0.02c0.43,0.15,0.92,0.07,1.28-0.27c0.5-0.47,0.53-1.26,0.05-1.77
	c-0.63-0.67-1.46-1.06-2.33-1.31c-0.43-0.13-0.89-0.19-1.34-0.23c-0.45-0.04-0.91-0.04-1.37,0.01
	C740.83,637.64,740.74,637.69,740.66,637.76z M638.25,615.16h-9.17c-1.26,0-2.29,1.03-2.29,2.29v0.5c0,1.26,1.03,2.29,2.29,2.29
	h9.17c1.26,0,2.29-1.03,2.29-2.29v-0.5C640.55,616.19,639.52,615.16,638.25,615.16z M679.58,622.91
	c-5.82-0.45-11.63-0.55-17.45-0.57c-5.82,0.02-11.63,0.12-17.45,0.57c-0.46,0.03-0.83,0.4-0.87,0.87c-0.04,0.52,0.35,0.97,0.87,1.01
	c5.82,0.45,11.63,0.55,17.45,0.57c5.82-0.02,11.63-0.12,17.45-0.57c0.46-0.03,0.83-0.4,0.87-0.87
	C680.49,623.41,680.1,622.95,679.58,622.91z M758.69,682.02c-2.43,2.47-5.65,3.06-11.49,4.13c-5.8,1.06-11.73,1.3-17.64,0.73
	c-2.9,12.92-14.45,22.61-28.24,22.61c-14.31,0-26.23-10.45-28.53-24.11c-0.29,0.17-0.62,0.28-0.99,0.29l-202.43,2.95
	c-2.8,13.38-14.68,23.46-28.88,23.46c-13.53,0-24.96-9.16-28.42-21.6l-30.3,0.33c-0.01,0-0.02,0-0.03,0c-0.05,0-0.1,0-0.15,0
	c-14.67-0.88-33.79-4.19-41.61-14.95c-0.54-0.75-1.05-1.54-1.05-1.54c-2.19-3.73-3.78-9.99-4.52-28.69
	c-0.46-11.59-1.09-27.47,1.37-50.63c0.02-0.19,2.08-19.13,9.23-47.55c0.85-3.39,2.63-10.44,7.42-18.4c0.04-0.07,0.09-0.14,0.14-0.21
	c3.05-4.06,5.45-7.39,6.35-8.63l0.11-0.16c0.99-1.3,1.54-2.03,31.04-2.36c3.98-0.04,8.37-0.08,13.18-0.1v-3.65
	c-3.77-0.23-8.64-1.28-12.11-4.98c-3.3-3.51-4.67-8.66-4.08-15.3c0.12-1.38,1.34-2.39,2.71-2.27c1.38,0.12,2.39,1.34,2.27,2.71
	c-0.07,0.74-0.1,1.44-0.1,2.13l210.54,1.48c0.1-1.06,0.13-2.17,0.07-3.35c-0.08-1.38,0.98-2.56,2.36-2.63
	c1.38-0.09,2.56,0.98,2.63,2.36c0.13,2.35-0.04,4.52-0.45,6.52c-0.02,0.1-0.04,0.2-0.07,0.3c-0.59,2.62-1.63,4.93-3.16,6.9
	c-4.35,5.6-11.86,7.57-17.11,7.57c-0.11,0-0.21,0-0.31,0c-3.39-0.05-6.74-0.1-10.05-0.15v3.77c4.18,0.06,7.98,0.11,11.32,0.16
	l9.72,0.13c10.99-0.01,20.48,0.99,30.8,3.77c11.66,3.13,18.78,9.78,24.72,14.43c5.07,3.98,11.46,9.69,23.79,24.48
	c10.65,12.78,16.26,21.01,19.98,26.47c4.76,6.99,6.55,9.61,12.44,12.65c2.12,1.09,4.3,2,7.06,3.14c4.38,1.82,10.37,4.3,19.66,9.08
	c8.96,4.61,11.29,6.34,13.4,8.71c4.8,5.38,5.51,10.22,7.85,26.26l0.46,3.12c0.78,5.29,1.58,9.59,2.23,13.05
	C761.52,673.63,762.39,678.26,758.69,682.02z M563.25,518.8v-3.79c-24.72-0.37-47.16-0.68-66.87-0.92v3.92
	C520.84,518.25,544.43,518.55,563.25,518.8z M582.19,510.29c1.43,0.02,2.87,0.04,4.32,0.07c0.92,0.03,9.04-0.03,13.4-5.64
	c0.48-0.62,0.9-1.3,1.25-2.03l-18.97-0.13V510.29z M558.35,509.94c6.75,0.1,13.7,0.2,20.84,0.31v-7.71l-20.84-0.15V509.94z
	 M534.51,509.59c6.72,0.09,13.67,0.19,20.84,0.3v-7.53l-20.84-0.15V509.59z M510.67,509.27c6.66,0.09,13.62,0.18,20.84,0.28v-7.35
	l-20.84-0.15V509.27z M486.83,508.97c6.59,0.08,13.54,0.16,20.84,0.26v-7.2l-20.84-0.15V508.97z M462.99,508.73
	c6.45,0.06,13.41,0.13,20.84,0.21v-7.08l-20.84-0.15V508.73z M439.16,508.57c6.17,0.02,13.13,0.07,20.84,0.13v-7l-20.84-0.15V508.57
	z M415.32,508.65c5.15-0.09,12.13-0.11,20.84-0.09v-7.03l-20.84-0.15V508.65z M407.52,508.9c1.21-0.07,2.82-0.13,4.8-0.18v-7.35
	l-19.82-0.14c0.47,1.73,1.22,3.17,2.28,4.3C398.48,509.45,405.28,509.04,407.52,508.9z M416.38,517.54
	c11.42,0,24.56,0.04,39.35,0.13c9.06,0.06,18.3,0.13,27.51,0.21v-3.95c-31.22-0.35-54.27-0.48-66.87-0.3V517.54z M364.34,532.78
	c13.23-0.33,26.55-0.61,39.77-0.82c51.32-0.83,90.26-0.54,127.93-0.25c35,0.26,70.66,0.76,106.15,1.46
	c-3.35-1.98-7.06-4.17-11.61-5.41c-9.33-2.53-18.75-3.52-28.84-3.49c-0.09,0-0.17,0.01-0.26,0.01l-9.85-0.14
	c-150.71-2.11-204.62-1.8-220.3-0.93C366.27,526.37,365.28,529.56,364.34,532.78z M355.9,533c1.41-0.04,2.83-0.08,4.24-0.11
	c0.9-3.12,1.84-6.23,2.85-9.31c-0.15,0.02-0.28,0.04-0.4,0.07c-1.1,1.52-3.27,4.51-5.94,8.07C356.39,532.15,356.14,532.57,355.9,533
	z M339.05,621.85c1.4,0.33,2.82,0.47,4.25,0.4c1.2-0.06,2.39-0.26,3.55-0.6l-0.35-10c-1.09-0.38-2.25-0.59-3.4-0.6
	c-1.26-0.03-2.5,0.19-3.67,0.6c-0.02,0.31-0.03,0.6-0.05,0.9l2.67,0.04c0.83,0.01,1.49,0.69,1.48,1.52
	c-0.01,0.82-0.68,1.48-1.5,1.48c-0.01,0-0.01,0-0.02,0l-2.77-0.04c-0.02,0.51-0.04,1.01-0.06,1.5l2.76-0.01c0,0,0,0,0.01,0
	c0.83,0,1.5,0.67,1.5,1.5c0,0.83-0.67,1.5-1.49,1.5l-2.87,0.01C339.08,620.66,339.06,621.27,339.05,621.85z M339.38,644.75
	c0.08,0.04,0.16,0.08,0.24,0.13c0.74,0.5,2.28,1.32,4.34,1.24c1.63-0.07,2.91-0.69,3.71-1.23l-0.71-20.16
	c-1.15,0.28-2.33,0.47-3.52,0.53c-0.29,0.01-0.58,0.02-0.87,0.02c-1.2,0-2.4-0.13-3.57-0.37c-0.01,0.62-0.01,1.22-0.01,1.82
	l4.07-0.04c0,0,0.01,0,0.02,0c0.82,0,1.49,0.66,1.5,1.48c0.01,0.83-0.66,1.51-1.48,1.52l-4.1,0.04c0.01,1.33,0.02,2.63,0.04,3.89
	l2.48-0.06c0.85,0,1.52,0.64,1.54,1.46s-0.64,1.52-1.46,1.54l-2.48,0.06c0.03,1.05,0.06,2.07,0.09,3.06l1.31-0.03
	c0.81-0.03,1.51,0.64,1.53,1.47c0.02,0.83-0.64,1.51-1.47,1.53l-1.26,0.02C339.32,643.38,339.35,644.07,339.38,644.75z
	 M350.16,651.1c-0.06-0.99-0.11-1.97-0.16-2.96c-1.29,0.89-3.28,1.86-5.87,1.97c-0.16,0.01-0.31,0.01-0.46,0.01
	c-1.6,0-2.97-0.35-4.07-0.78c0.03,0.58,0.06,1.14,0.09,1.69L350.16,651.1z M350.53,591.14c1.33-18.25,3.61-34.22,6.77-47.47
	c0.46-1.92,0.95-3.83,1.45-5.74c-1.79,0.05-3.59,0.09-5.38,0.14c-2,4.57-2.97,8.39-3.52,10.58c-7.06,28.05-9.09,46.68-9.11,46.86
	c-0.45,4.21-0.79,8.18-1.05,11.93c1.14-0.26,2.3-0.39,3.46-0.38c2.11,0.03,4.24,0.53,6.15,1.44c0.11,0.05,0.21,0.13,0.3,0.2
	C349.81,602.81,350.11,596.95,350.53,591.14z M451.71,682.56c0-6.2-5.02-11.22-11.22-11.22c-6.2,0-11.22,5.02-11.22,11.22
	s5.02,11.22,11.22,11.22C446.69,693.78,451.71,688.76,451.71,682.56z M521.75,536.62c-34.52-0.25-70.93-0.42-117.56,0.33
	c-13.71,0.22-27.54,0.51-41.26,0.86c-0.61,2.26-1.19,4.52-1.73,6.78c-3.11,13.04-5.36,28.79-6.67,46.83
	c-1.48,20.32-1.56,41.2-0.23,62.05c0.01,0.2-0.01,0.38-0.05,0.57l3.55,12.58l29.54,9.47l17.62-0.82c0.89-3.41,2.25-6.66,4.04-9.66
	c2.01-3.38,4.56-6.44,7.54-8.97c2.95-2.56,6.35-4.57,9.94-6.03c3.6-1.44,7.4-2.3,11.24-2.54c0.45-0.03,0.84,0.31,0.87,0.77
	c0.03,0.44-0.3,0.81-0.73,0.86c-3.64,0.42-7.2,1.43-10.5,2.96c-3.29,1.54-6.34,3.58-8.93,6.08c-4.67,4.4-7.9,10.21-9.39,16.34
	l2.94-0.14c3.36-12.6,14.87-21.91,28.51-21.91c14.22,0,26.13,10.11,28.9,23.53l52.36-0.76v-63.03h-65.18
	c-2.93,0-5.32-2.39-5.32-5.32v-51.23c0-2.93,2.39-5.32,5.32-5.32h65.18V536.62z M615.48,537.74c-27.96-0.48-55.93-0.83-83.48-1.04
	c-2.41-0.02-4.83-0.04-7.25-0.05v14.28h80.57c2.93,0,5.32,2.39,5.32,5.32v51.23c0,2.93-2.39,5.32-5.32,5.32h-80.57v62.98l90.73-1.32
	V537.74z M712.54,680.54c0-6.2-5.02-11.22-11.22-11.22c-6.2,0-11.22,5.02-11.22,11.22c0,6.2,5.02,11.22,11.22,11.22
	C707.52,691.76,712.54,686.74,712.54,680.54z M746.62,635.95c-0.45-0.71-1.51-2.09-3.48-3.36c-3.64-2.36-7.79-2.64-10.84-2.41
	c1.64,3.71,4.01,6.87,6.96,9.25c4.13,3.33,8.2,4.88,8.94,4.29C748.93,643.13,748.67,639.16,746.62,635.95z M749.43,633
	c-0.9-3.46-2-5.55-3.9-7.67c-1.44-1.61-3.05-3.01-11.96-7.59c-9.11-4.69-14.75-7.03-19.29-8.91c-2.86-1.19-5.13-2.13-7.43-3.32
	c-7.03-3.62-9.3-6.96-14.29-14.28c-3.66-5.37-9.19-13.49-19.69-26.08c-12.03-14.43-18.18-19.94-23.03-23.75
	c-1.26-0.98-2.59-2.02-4-3.08c-9.11-0.19-18.24-0.36-27.37-0.53v136.62l48.39-0.71c0.74-3.42,2-6.68,3.73-9.68
	c1.82-3.14,4.16-5.98,6.9-8.31c5.46-4.72,12.47-7.4,19.52-7.76c0.43-0.02,0.8,0.31,0.82,0.74c0.02,0.42-0.29,0.77-0.69,0.82l-0.01,0
	c-6.67,0.73-13.06,3.67-17.76,8.26c-2.38,2.27-4.33,4.96-5.79,7.87c-1.27,2.53-2.16,5.25-2.67,8l1.85-0.03c0.01,0,0.02,0,0.03,0
	c0.14,0,0.28,0.02,0.42,0.05c3.1-12.65,14.52-22.06,28.11-22.06c14.16,0,25.97,10.22,28.45,23.68l1.18,0.04
	c0.2-1.85,0.07-3.72-0.32-5.55c-0.41-1.88-1.15-3.72-2.13-5.46c-0.99-1.74-2.25-3.37-3.68-4.86c-1.44-1.49-3.03-2.87-4.75-4.07
	l-0.01-0.01c-0.54-0.38-0.68-1.12-0.3-1.67c0.35-0.5,1.01-0.65,1.54-0.38c2.02,1.05,3.92,2.31,5.68,3.79
	c0.96,0.8,1.87,1.67,2.74,2.6c0.02,0,0.03-0.01,0.05-0.01l7.02-0.3l9.45-11.75c-3.75-0.73-7.92-3.85-9.48-5.11
	c-4.12-3.32-7.28-7.95-9.13-13.37c-0.19-0.55-0.13-1.15,0.17-1.66s0.79-0.85,1.36-0.96c3.51-0.64,10.26-1.16,16.17,2.67
	C747.29,630.51,748.59,631.88,749.43,633z M447.72,684.3l-0.01,0.02c-0.91,1.48-2.03,2.72-3.39,3.61c-1.35,0.91-2.92,1.44-4.61,1.74
	l-0.03,0.01c-0.32,0.06-0.58,0.31-0.64,0.65c-0.07,0.43,0.22,0.83,0.65,0.9c1.01,0.16,2.06,0.12,3.06-0.14
	c1.01-0.24,1.98-0.69,2.84-1.28c1.72-1.19,3.01-2.99,3.43-4.98c0.06-0.28-0.06-0.59-0.32-0.75
	C448.37,683.87,447.93,683.97,447.72,684.3z M683.66,588.28c-4.37-7.02-8.6-12.5-11.97-16.47c0,0-7.03-8.45-13.8-12.5
	c-0.58-0.35-2.56-1.43-2.93-1.6c-1.28-0.59-2.4-0.76-3.08-0.88c-0.9-0.16-20.44-2.73-23.72-2.89c-1.14-0.1-3.14-0.1-4.27,1.17
	c-0.92,1.03-0.88,2.45-0.85,3.1c0.18,3.41,1.52,17.08,3.57,35.66c0.45,1.93,1.82,6.68,6.11,10.87c4.16,4.06,8.76,5.35,10.7,5.77
	c7.36,1.32,34.17,6.07,47.89,7.47c2.81,0.29,8.24,0.76,9.34-1.53c0.69-1.44-0.62-3.4-1.19-4.25
	C696.01,607.08,690.61,598.8,683.66,588.28z M444.71,675.08c-1.87-0.93-4.07-1.19-6.02-0.6c-0.28,0.08-0.49,0.34-0.5,0.64
	c-0.02,0.39,0.28,0.72,0.67,0.74l0.02,0c1.73,0.09,3.36,0.47,4.8,1.23c1.45,0.75,2.67,1.86,3.75,3.2l0.02,0.03
	c0.2,0.25,0.55,0.36,0.88,0.25c0.41-0.15,0.62-0.6,0.47-1c-0.35-0.96-0.89-1.86-1.6-2.62C446.5,676.18,445.64,675.55,444.71,675.08z
	 M401.68,621.66l-17.9,0.09l-17.9,0.2c-0.43,0.01-0.79,0.36-0.8,0.79c-0.01,0.45,0.35,0.81,0.79,0.82l17.9,0.32l17.9,0.22l35.8,0.27
	l35.81,0.03l17.9-0.07l17.9-0.17c0.48-0.01,0.87-0.39,0.88-0.88c0.01-0.49-0.38-0.9-0.88-0.91l-17.9-0.3l-17.9-0.2l-35.8-0.22
	L401.68,621.66z M604.87,622.19l-7.42-0.17l-7.42-0.09l-14.85-0.08l-14.85,0.08l-7.42,0.1l-7.42,0.17
	c-0.57,0.01-1.04,0.47-1.05,1.05c-0.01,0.59,0.46,1.09,1.05,1.1l7.42,0.17l7.42,0.1l14.85,0.08l14.85-0.08l7.42-0.09l7.42-0.17
	c0.57-0.01,1.04-0.47,1.05-1.05C605.93,622.69,605.46,622.2,604.87,622.19z M434.65,677.31c-0.71,0.74-1.27,1.62-1.64,2.59
	c-0.38,0.97-0.57,2.01-0.57,3.06c-0.01,2.09,0.74,4.18,2.13,5.66c0.2,0.21,0.52,0.29,0.8,0.17c0.36-0.16,0.52-0.57,0.37-0.93
	l-0.01-0.02c-0.69-1.59-1.07-3.22-1.03-4.85c0.03-1.63,0.48-3.22,1.21-4.78l0.01-0.03c0.14-0.29,0.08-0.66-0.17-0.89
	C435.45,676.99,434.95,677,434.65,677.31z M708.45,682.31l-0.01,0.02c-0.91,1.48-2.03,2.72-3.39,3.61
	c-1.35,0.91-2.92,1.44-4.61,1.74l-0.03,0.01c-0.32,0.06-0.58,0.31-0.64,0.65c-0.07,0.43,0.22,0.83,0.65,0.9
	c1.01,0.16,2.06,0.12,3.06-0.14c1.01-0.24,1.98-0.69,2.84-1.28c1.72-1.19,3.01-2.99,3.43-4.98c0.06-0.28-0.06-0.59-0.32-0.75
	C709.09,681.87,708.66,681.97,708.45,682.31z M705.43,673.09c-1.87-0.93-4.07-1.19-6.02-0.6c-0.28,0.08-0.49,0.34-0.5,0.64
	c-0.02,0.39,0.28,0.72,0.67,0.74l0.02,0c1.73,0.09,3.36,0.47,4.8,1.23c1.45,0.75,2.67,1.86,3.75,3.2l0.02,0.03
	c0.2,0.25,0.55,0.36,0.88,0.25c0.41-0.15,0.62-0.6,0.47-1c-0.35-0.96-0.89-1.86-1.6-2.62C707.22,674.19,706.37,673.56,705.43,673.09
	z M695.11,675.32c-0.71,0.74-1.27,1.62-1.64,2.59c-0.38,0.97-0.57,2.01-0.57,3.06c-0.01,2.09,0.74,4.18,2.13,5.66
	c0.2,0.21,0.52,0.29,0.8,0.17c0.36-0.16,0.52-0.57,0.37-0.93l-0.01-0.02c-0.69-1.59-1.07-3.22-1.03-4.85
	c0.03-1.63,0.48-3.22,1.21-4.78l0.01-0.03c0.14-0.29,0.08-0.66-0.17-0.89C695.91,674.99,695.41,675,695.11,675.32z M608.35,615.16
	h-9.17c-1.26,0-2.29,1.03-2.29,2.29v0.5c0,1.26,1.03,2.29,2.29,2.29h9.17c1.26,0,2.29-1.03,2.29-2.29v-0.5
	C610.64,616.19,609.61,615.16,608.35,615.16z"/>
<path id="Landscape" d="M707.48,441.09c-0.58,0.96-1.82,1.27-2.78,0.72c-12.06-6.92-23.72-14.56-34.86-22.91
	c-5.57-4.17-11.02-8.52-16.32-13.05c-5.27-4.52-10.5-9.04-15.64-13.78c-10.26-9.44-19.93-19.9-27.65-31.83
	c-6.63-10.21-11.87-21.3-15.62-32.9c-7.58,6.25-14.85,12.9-21.68,19.97c-8.26,8.44-15.61,17.78-23.56,26.93
	c-7.95,9.27-17.54,17.35-28.21,23.35c-10.66,6.04-22.26,10.17-34.08,12.81c-0.9,0.2-1.79-0.36-1.99-1.26
	c-0.2-0.88,0.35-1.75,1.21-1.98c11.47-2.96,22.56-7.34,32.58-13.45c4.04-2.45,7.87-5.21,11.49-8.21c-2.62-1.78-5.23-3.57-7.83-5.39
	c-1.58-1.1-9.3-6.78-9.3-6.78c-3.05-2.27-14.02-9.55-14.02-9.55c-1.57-0.97-3.11-1.83-4.72-2.59c-3.2-1.5-6.87-2.79-10.45-4.35
	c-3.59-1.53-21.87-10.81-27.32-14.09c-5.32,9.83-11.06,19.43-17.3,28.71c-7.08,10.41-14.62,20.52-22.82,30.07
	c-8.14,9.59-16.86,18.69-26.03,27.28c-9.21,8.55-18.86,16.61-29,23.98c-0.88,0.64-2.12,0.45-2.76-0.44c-0.61-0.84-0.45-2,0.32-2.67
	c5.88-5.04,11.64-10.22,17.25-15.53c-1.57-5.42-3.99-10.54-7.1-15.14c-2.19-3.21-4.72-6.16-7.52-8.82
	c-4.44,9.63-9.15,19.13-14.15,28.48c-5.84,10.94-12.09,21.65-18.65,32.15c-6.6,10.48-13.52,20.76-20.8,30.76
	c-7.27,10.01-14.9,19.76-22.82,29.24c-0.64,0.76-1.78,0.87-2.54,0.23c-0.75-0.63-0.86-1.74-0.26-2.5
	c7.59-9.66,14.86-19.55,21.78-29.68c6.92-10.13,13.47-20.5,19.69-31.06c6.18-10.58,12.03-21.35,17.48-32.31
	c5.45-10.96,10.52-22.1,15.2-33.4l0,0l0.04-0.1c0.83-1.98,3.1-2.92,5.09-2.09c0.43,0.18,0.82,0.44,1.15,0.74
	c4.7,4.36,8.71,9.44,11.82,14.98c2.56,4.59,4.5,9.5,5.76,14.54c1.94-1.9,3.87-3.8,5.77-5.74c8.68-8.79,16.89-18.01,24.67-27.57
	c7.75-9.59,15.1-19.49,21.86-29.79c6.81-10.26,13.12-20.86,18.85-31.76l0.02-0.03c1.02-1.94,3.42-2.68,5.36-1.66
	c0.1,0.05,0.21,0.12,0.31,0.18c6.34,4.09,26.22,14.88,29.63,16.47c3.4,1.6,6.91,3.03,10.55,4.98c1.81,0.96,3.56,2.08,5.19,3.21
	c0,0,3.96,2.86,4.74,3.45c3.1,2.38,16.21,13.73,17.64,15c2.53,2.19,5.04,4.42,7.55,6.67c4.49-3.95,8.63-8.3,12.4-12.99
	c7.47-9.19,14.67-18.96,22.89-27.94c8.16-9,16.97-17.42,26.25-25.26c1.67-1.41,4.17-1.2,5.58,0.47c0.39,0.47,0.66,1,0.81,1.55
	l0.01,0.05l0,0c3.27,13.02,8.52,25.57,15.58,37.01c7.04,11.47,16.03,21.71,25.87,31.2c4.91,4.75,10.03,9.38,15.14,13.98
	c5.11,4.57,10.36,8.97,15.75,13.21c10.78,8.48,22.1,16.28,33.85,23.4C707.75,438.85,708.06,440.12,707.48,441.09z M861.96,523.77
	c-7.4-10.93-15.31-21.53-23.79-31.69c-4.27-5.09-8.75-10.01-13.51-14.69c-2.38-2.34-4.84-4.62-7.39-6.8
	c-2.54-2.18-5.19-4.3-8.02-6.25c-2.82-1.97-5.78-3.6-8.37-5.31c-2.61-1.71-5.07-3.65-7.48-5.73c-2.4-2.09-4.75-4.26-6.94-6.55
	c-2.21-2.28-4.26-4.69-6.37-7.21c-2.11-2.51-4.36-5.15-6.89-7.55c-2.52-2.41-5.22-4.59-7.99-6.6c-5.55-4-11.54-7.39-17.84-10.11
	l-0.01-0.01c-1.64-0.71-3.61-0.22-4.71,1.27l0,0c-6.64,9.05-13.7,17.8-21.15,26.22c-7.45,8.42-15.3,16.49-23.49,24.22
	c-4.1,3.86-8.3,7.61-12.56,11.3c-4.28,3.66-8.64,7.23-13.08,10.72c-8.89,6.94-18.09,13.5-27.57,19.64c-0.72,0.47-0.95,1.42-0.5,2.16
	c0.45,0.76,1.43,1,2.19,0.55c9.78-5.85,19.3-12.14,28.53-18.84c4.61-3.36,9.15-6.82,13.62-10.38c4.45-3.58,8.84-7.23,13.14-11
	c8.58-7.55,16.86-15.46,24.74-23.77c7.17-7.54,14.01-15.4,20.53-23.53c4.83,2.14,9.48,4.72,13.85,7.71
	c2.59,1.79,5.06,3.67,7.34,5.75c2.29,2.06,4.38,4.38,6.55,6.84c2.16,2.46,4.44,5,6.86,7.38c2.41,2.4,4.95,4.63,7.56,6.79
	c2.6,2.14,5.37,4.22,8.3,6.04c2.94,1.83,5.79,3.3,8.39,5.03c2.63,1.72,5.17,3.64,7.66,5.67c2.5,2.02,4.91,4.15,7.27,6.36
	c4.72,4.41,9.21,9.11,13.5,13.98c8.6,9.8,16.68,20.08,24.27,30.73c0.65,0.91,1.91,1.14,2.84,0.51
	C862.35,525.99,862.6,524.71,861.96,523.77z M471.04,464.92c0.38,0.91,1.43,1.33,2.34,0.95c7.83-3.3,15.46-7.14,22.79-11.5
	c7.34-4.33,14.39-9.16,21.14-14.38c3.37-2.61,6.64-5.35,9.86-8.16c3.18-2.84,6.31-5.74,9.31-8.77c6.03-6.03,11.62-12.48,16.73-19.27
	c0.53-0.71,0.45-1.72-0.21-2.33c-0.71-0.65-1.81-0.6-2.46,0.11c-5.67,6.17-11.55,12.1-17.64,17.8c-6.1,5.68-12.44,11.09-19.02,16.2
	c-13.14,10.25-27.26,19.17-42.02,27.09C471.05,463.09,470.68,464.07,471.04,464.92z M734.21,482.94c0.72,0.88,2.02,1.01,2.91,0.29
	c5.03-4.11,10.35-7.82,15.98-10.99c2.82-1.57,5.72-3,8.65-4.36c2.93-1.37,5.94-2.58,8.97-3.78l0.01,0c0.88-0.35,1.41-1.29,1.2-2.25
	c-0.23-1.06-1.28-1.73-2.34-1.5c-3.33,0.73-6.58,1.79-9.75,3.04c-3.17,1.26-6.24,2.78-9.2,4.49c-2.96,1.7-5.84,3.54-8.55,5.62
	c-2.73,2.04-5.32,4.27-7.73,6.67C733.61,480.91,733.53,482.11,734.21,482.94z M683.55,546.97c-1.04,0.22-1.72,1.23-1.53,2.29
	c0.2,1.07,1.23,1.78,2.3,1.59c4.51-0.82,8.99-1.83,13.42-3.05c4.42-1.24,8.78-2.71,13.08-4.34c8.56-3.35,16.85-7.47,24.6-12.46
	c7.75-4.99,14.96-10.8,21.54-17.25c3.26-3.26,6.36-6.67,9.26-10.24c2.89-3.58,5.59-7.31,8.1-11.16c0.61-0.94,0.37-2.21-0.56-2.86
	c-0.95-0.66-2.25-0.42-2.91,0.53c-2.54,3.66-5.26,7.19-8.15,10.58c-2.86,3.41-5.9,6.66-9.09,9.75
	c-6.41,6.16-13.37,11.74-20.84,16.55c-7.42,4.9-15.43,8.86-23.65,12.26C700.85,542.46,692.3,545.11,683.55,546.97L683.55,546.97z
	 M1055.9,518.69c-0.61-0.34-1.2-0.7-1.79-1.06l0.32,25.61c0.4,0.26,0.78,0.55,1.12,0.89l0.07,0.08c3.02,3.09,5.9,6.22,8.91,9.26
	c3.01,3.03,6.07,6.02,9.3,8.89c3.21,2.89,6.59,5.63,10.08,8.34c3.51,2.69,7.16,5.25,10.92,7.93l0.03,0.02
	c1.09,0.77,1.34,2.28,0.57,3.37c-0.54,0.76-1.45,1.11-2.31,0.99c-4.77-0.69-9.42-2.06-13.92-3.84c-4.52-1.76-8.85-4.02-12.97-6.64
	c-4.12-2.61-8.01-5.63-11.54-9.02l0.83,67.96l0.76,72.5l17.63-0.12c0.01,0,0.02,0,0.03,0c1.95,0,3.53,1.57,3.54,3.52
	c0.01,1.96-1.56,3.55-3.52,3.57L31.91,718.19c-0.01,0-0.02,0-0.03,0c-1.95,0-3.53-1.57-3.54-3.52c-0.01-1.96,1.56-3.55,3.52-3.57
	l114.12-0.8l0.75-70.75l0.83-67.96c-3.53,3.39-7.42,6.41-11.54,9.02c-4.12,2.62-8.46,4.88-12.97,6.64
	c-4.5,1.78-9.15,3.15-13.92,3.84c-1.32,0.19-2.54-0.72-2.74-2.04c-0.13-0.92,0.27-1.8,0.99-2.31l0.03-0.02
	c3.76-2.68,7.42-5.24,10.92-7.93c3.49-2.7,6.87-5.45,10.08-8.34c3.23-2.87,6.29-5.86,9.3-8.89c3.01-3.04,5.89-6.17,8.91-9.26
	l0.07-0.07c0.35-0.35,0.73-0.66,1.13-0.92l0.32-25.6c-0.6,0.36-1.19,0.72-1.79,1.06c-3.91,2.19-8.1,3.81-12.29,5.23
	c-2.12,0.66-4.24,1.26-6.38,1.77c-2.15,0.48-4.3,0.89-6.46,1.21c-4.32,0.6-8.66,0.84-12.96,0.61c-1.23-0.07-2.18-1.12-2.11-2.35
	c0.05-0.9,0.63-1.65,1.42-1.96l0.03-0.01c3.83-1.48,7.53-3.04,11.07-4.79c3.55-1.75,6.96-3.65,10.2-5.73
	c3.27-2.03,6.31-4.36,9.3-6.64c2.99-2.29,5.87-4.65,8.91-6.86l0.09-0.07c0.39-0.28,0.79-0.52,1.21-0.72l0.21-16.9l0.19-11.2
	c-0.85,0.56-1.72,1.09-2.6,1.6c-3.6,2.09-7.48,3.65-11.35,5.08c-1.95,0.69-3.93,1.28-5.91,1.84c-1.99,0.54-3.99,0.99-6,1.38
	c-4.03,0.73-8.09,1.2-12.17,1.19c-1.17,0-2.11-0.95-2.11-2.12c0-0.81,0.46-1.52,1.13-1.87l0.02-0.01c3.48-1.82,6.87-3.58,10.14-5.47
	c1.65-0.92,3.25-1.89,4.84-2.87c1.59-0.96,3.15-1.97,4.68-3c3.1-2,5.99-4.24,8.94-6.34c1.47-1.05,2.94-2.11,4.43-3.12
	c1.48-1.03,2.99-2.03,4.58-2.95l0.16-0.09c0.5-0.29,1.03-0.5,1.56-0.66l0.21-8.91c0.21-8.28,0.45-16.57,0.77-24.85
	c-0.09,0.12-0.18,0.24-0.27,0.36c-2.63,3.56-5.77,6.74-9.28,9.42c-3.49,2.71-7.27,5.03-11.26,6.84c-1.99,0.91-4.02,1.73-6.05,2.47
	c-1.02,0.37-2.04,0.72-3.07,1.04c-1.03,0.31-2.02,0.71-3.2,0.67c-0.8-0.03-1.42-0.71-1.39-1.5c0.01-0.32,0.13-0.62,0.32-0.85
	l0.02-0.03c0.72-0.89,1.63-1.35,2.46-1.95c0.85-0.58,1.67-1.18,2.49-1.79c1.63-1.22,3.2-2.51,4.71-3.84
	c3.02-2.67,5.89-5.39,8.62-8.21c2.72-2.82,5.34-5.68,8.01-8.54c2.62-2.91,5-5.97,8.11-8.76l0.07-0.06c0.73-0.65,1.65-0.93,2.55-0.86
	c0.98-0.1,1.93,0.22,2.63,0.85l0.09,0.08c3.09,2.79,5.47,5.86,8.13,8.74c1.34,1.42,2.7,2.82,4.08,4.19l4.12,4.13
	c2.76,2.75,5.61,5.46,8.56,8.19c1.48,1.37,3,2.72,4.6,3.99c0.8,0.63,1.62,1.26,2.45,1.86c0.82,0.63,1.71,1.12,2.45,1.98l0.02,0.03
	c0.51,0.6,0.44,1.5-0.16,2.01c-0.26,0.22-0.58,0.34-0.9,0.34c-1.16,0.02-2.17-0.35-3.21-0.64c-1.04-0.3-2.07-0.63-3.11-0.97
	c-2.06-0.7-4.13-1.45-6.16-2.32c-4.06-1.74-7.86-4.07-11.32-6.85c-3.48-2.76-6.48-6.07-9.09-9.65c-0.26-0.36-0.52-0.72-0.78-1.08
	c0.34,8.52,0.58,17.03,0.79,25.55l0.21,8.77c0.72,0.15,1.42,0.41,2.07,0.78l0.17,0.1c1.59,0.92,3.1,1.91,4.58,2.95
	c1.5,1.01,2.96,2.06,4.43,3.12c2.95,2.09,5.85,4.34,8.94,6.34c1.53,1.03,3.09,2.04,4.68,3c1.59,0.98,3.19,1.95,4.84,2.87
	c3.27,1.89,6.67,3.65,10.14,5.47l0.02,0.01c1.04,0.54,1.44,1.82,0.89,2.85c-0.38,0.72-1.11,1.13-1.87,1.14
	c-4.07,0.01-8.13-0.46-12.17-1.19c-2.01-0.39-4.01-0.85-6-1.38c-1.98-0.56-3.96-1.15-5.91-1.84c-3.87-1.43-7.75-2.99-11.35-5.08
	c-1.06-0.61-2.1-1.27-3.12-1.95l0.2,11.55l0.21,16.67c0.6,0.24,1.18,0.55,1.72,0.94l0.09,0.07c3.04,2.22,5.92,4.57,8.91,6.86
	c2.99,2.28,6.03,4.6,9.3,6.64c3.24,2.08,6.65,3.98,10.2,5.73c3.55,1.76,7.25,3.31,11.07,4.79l0.03,0.01
	c1.15,0.45,1.72,1.74,1.27,2.89c-0.33,0.84-1.11,1.38-1.96,1.42c-4.3,0.23-8.64-0.01-12.96-0.61c-2.16-0.31-4.31-0.73-6.46-1.21
	c-2.14-0.51-4.26-1.11-6.38-1.77c-4.19-1.42-8.38-3.04-12.29-5.23c-0.78-0.43-1.55-0.89-2.31-1.36l0.32,25.61
	c0.6,0.31,1.15,0.71,1.64,1.2l0.07,0.08c3.02,3.09,5.9,6.22,8.91,9.26c3.01,3.03,6.07,6.02,9.3,8.89c3.21,2.89,6.59,5.63,10.08,8.34
	c3.51,2.69,7.16,5.25,10.92,7.93l0.02,0.02c1.09,0.77,1.34,2.28,0.57,3.37c-0.54,0.76-1.45,1.11-2.31,0.99
	c-4.77-0.69-9.42-2.06-13.92-3.84c-4.52-1.76-8.85-4.02-12.97-6.64c-4.13-2.61-8.01-5.63-11.55-9.03c-0.17-0.16-0.34-0.33-0.51-0.5
	l0.83,68.47l0.75,70.66l70.9-0.49l0.75-61.64l0.8-57.43c-2.76,2.48-5.74,4.73-8.88,6.67c-3.65,2.27-7.5,4.2-11.5,5.68
	c-3.99,1.5-8.11,2.61-12.33,3.09c-1.33,0.15-2.54-0.81-2.69-2.14c-0.1-0.88,0.28-1.7,0.93-2.2l0.03-0.03
	c3.21-2.46,6.34-4.77,9.33-7.17c2.98-2.42,5.86-4.85,8.61-7.38c2.76-2.52,5.38-5.13,7.96-7.75c2.59-2.63,5.08-5.32,7.74-7.94
	l0.09-0.09c0.31-0.3,0.64-0.57,0.98-0.8l0.3-20.29c-0.14,0.08-0.28,0.17-0.42,0.25c-3.47,1.89-7.2,3.27-10.91,4.46
	c-1.88,0.55-3.76,1.05-5.65,1.47c-1.9,0.39-3.81,0.71-5.71,0.95c-3.82,0.45-7.65,0.58-11.42,0.27c-1.24-0.1-2.16-1.19-2.05-2.42
	c0.07-0.86,0.62-1.57,1.36-1.88l0.03-0.01c3.31-1.4,6.49-2.84,9.54-4.45c1.52-0.79,3.02-1.62,4.47-2.49
	c1.46-0.84,2.88-1.75,4.26-2.68c2.79-1.82,5.37-3.88,7.91-5.88c2.56-1.99,5.01-4.04,7.65-5.91l0.12-0.09
	c0.36-0.25,0.73-0.46,1.11-0.64l0.2-13.95l0.16-8.34c-0.41,0.25-0.82,0.51-1.23,0.75c-3.19,1.8-6.61,3.18-10.05,4.35
	c-1.73,0.57-3.48,1.07-5.23,1.53c-1.76,0.44-3.53,0.8-5.31,1.11c-3.57,0.57-7.15,0.89-10.74,0.76c-1.18-0.04-2.1-1.03-2.06-2.2
	c0.03-0.77,0.45-1.42,1.07-1.78l0.03-0.02c2.99-1.7,5.91-3.32,8.72-5.04c1.41-0.83,2.79-1.71,4.15-2.6c1.37-0.86,2.7-1.77,4-2.69
	c2.63-1.81,5.13-3.76,7.65-5.6c2.53-1.83,5.03-3.65,7.81-5.19l0.15-0.08c0.47-0.26,0.96-0.46,1.46-0.6l0.2-7.05
	c0.19-6.71,0.41-13.41,0.7-20.12c-2.16,2.8-4.69,5.32-7.52,7.44c-3.09,2.35-6.45,4.35-9.99,5.88c-1.77,0.77-3.56,1.45-5.36,2.07
	c-0.9,0.3-1.81,0.6-2.71,0.86c-0.91,0.25-1.78,0.6-2.84,0.5c-0.82-0.08-1.42-0.81-1.34-1.62c0.03-0.27,0.12-0.51,0.27-0.72
	l0.03-0.04c0.6-0.84,1.39-1.24,2.1-1.78c0.73-0.52,1.44-1.06,2.14-1.6c1.4-1.1,2.74-2.25,4.02-3.44c2.57-2.38,5.02-4.78,7.34-7.24
	l6.9-7.39c2.28-2.5,4.36-5.13,7.19-7.45l0.09-0.08c0.77-0.63,1.72-0.87,2.63-0.75c0.94-0.1,1.86,0.17,2.56,0.74l0.1,0.09
	c2.82,2.33,4.9,4.96,7.22,7.43c1.17,1.22,2.35,2.41,3.55,3.59l3.55,3.57c2.37,2.4,4.78,4.78,7.29,7.23
	c1.25,1.23,2.54,2.45,3.91,3.59c0.69,0.57,1.38,1.13,2.1,1.68c0.7,0.57,1.47,1,2.09,1.81l0.02,0.03c0.49,0.65,0.36,1.57-0.28,2.06
	c-0.24,0.18-0.51,0.28-0.78,0.3c-1.04,0.07-1.93-0.24-2.85-0.47c-0.92-0.24-1.84-0.51-2.75-0.79c-1.83-0.57-3.67-1.19-5.47-1.92
	c-3.61-1.46-6.99-3.46-10.04-5.89c-2.98-2.33-5.55-5.17-7.77-8.22c0.3,6.89,0.53,13.77,0.72,20.66l0.19,6.94
	c0.66,0.14,1.3,0.37,1.9,0.7l0.16,0.09c2.78,1.54,5.27,3.36,7.81,5.19c2.52,1.84,5.01,3.79,7.65,5.6c1.31,0.92,2.64,1.83,4,2.69
	c1.36,0.88,2.73,1.76,4.15,2.6c2.81,1.72,5.72,3.34,8.72,5.04l0.02,0.01c1.02,0.58,1.38,1.88,0.8,2.91
	c-0.38,0.67-1.07,1.05-1.78,1.08c-3.59,0.12-7.17-0.2-10.74-0.76c-1.77-0.31-3.55-0.67-5.31-1.11c-1.75-0.46-3.5-0.96-5.23-1.53
	c-3.44-1.17-6.86-2.55-10.05-4.35c-0.57-0.32-1.13-0.67-1.68-1.02l0.17,8.62l0.2,13.77c0.54,0.22,1.07,0.48,1.55,0.82l0.12,0.09
	c2.64,1.87,5.1,3.92,7.65,5.91c2.55,2,5.12,4.07,7.91,5.88c1.38,0.93,2.8,1.84,4.26,2.68c1.45,0.87,2.94,1.7,4.47,2.49
	c3.04,1.61,6.23,3.05,9.54,4.45l0.03,0.01c1.14,0.48,1.68,1.8,1.19,2.95c-0.34,0.79-1.08,1.29-1.88,1.36
	c-3.78,0.31-7.6,0.18-11.42-0.27c-1.91-0.24-3.81-0.57-5.71-0.95c-1.89-0.42-3.77-0.92-5.65-1.47c-3.71-1.2-7.44-2.57-10.91-4.46
	c-0.29-0.16-0.58-0.34-0.87-0.51l0.3,20.3c0.51,0.28,1,0.62,1.43,1.04l0.09,0.1c2.66,2.62,5.15,5.32,7.74,7.94
	c2.59,2.62,5.21,5.23,7.96,7.75c2.74,2.53,5.62,4.96,8.61,7.38c2.99,2.4,6.12,4.71,9.33,7.17l0.03,0.02
	c1.07,0.82,1.27,2.34,0.45,3.41c-0.54,0.7-1.39,1.03-2.2,0.94c-4.22-0.48-8.34-1.59-12.33-3.09c-4-1.48-7.85-3.41-11.5-5.68
	c-3.32-2.05-6.45-4.43-9.33-7.08l0.81,57.83l0.74,61.54l594.54-4.14c-1.66-1.72-2.69-4.05-2.69-6.63c0-5.26,4.28-9.55,9.55-9.55
	c2.97,0,5.63,1.36,7.38,3.49c1.62-1.54,3.81-2.49,6.22-2.49c4.99,0,9.04,4.06,9.04,9.04c0,2.27-0.85,4.34-2.24,5.93l5.31-0.04
	c-1.54-1.59-2.5-3.75-2.5-6.14c0-4.86,3.95-8.81,8.81-8.81c2.44,0,4.65,1,6.24,2.6c1.81-2.49,4.74-4.12,8.04-4.12
	c5.49,0,9.95,4.47,9.95,9.95c0,2.39-0.85,4.59-2.26,6.3l58.78-0.41l0.78-64.66l0.81-57.83c-2.88,2.65-6.01,5.03-9.33,7.08
	c-3.65,2.27-7.5,4.2-11.5,5.68c-3.99,1.5-8.11,2.61-12.33,3.09c-1.33,0.15-2.54-0.81-2.69-2.14c-0.1-0.88,0.28-1.7,0.93-2.2
	l0.03-0.03c3.21-2.46,6.34-4.77,9.33-7.17c2.98-2.42,5.86-4.85,8.61-7.38c2.76-2.52,5.38-5.13,7.96-7.75
	c2.59-2.63,5.08-5.32,7.74-7.94l0.09-0.09c0.44-0.43,0.92-0.78,1.43-1.06l0.3-20.29c-0.29,0.17-0.58,0.35-0.87,0.51
	c-3.47,1.89-7.2,3.27-10.91,4.46c-1.88,0.55-3.76,1.05-5.65,1.47c-1.9,0.39-3.81,0.71-5.71,0.95c-3.82,0.45-7.65,0.58-11.42,0.27
	c-1.24-0.1-2.16-1.19-2.05-2.42c0.07-0.86,0.62-1.57,1.36-1.88l0.03-0.01c3.31-1.4,6.49-2.84,9.54-4.45
	c1.52-0.79,3.02-1.62,4.47-2.49c1.46-0.84,2.88-1.75,4.26-2.68c2.79-1.82,5.37-3.88,7.91-5.88c2.56-1.99,5.01-4.04,7.65-5.91
	l0.12-0.09c0.49-0.35,1.02-0.63,1.55-0.85l0.2-13.75l0.17-8.62c-0.56,0.35-1.11,0.7-1.68,1.02c-3.19,1.8-6.61,3.18-10.05,4.35
	c-1.73,0.57-3.48,1.07-5.23,1.53c-1.76,0.44-3.53,0.8-5.31,1.11c-3.57,0.57-7.15,0.89-10.74,0.76c-1.18-0.04-2.1-1.03-2.06-2.2
	c0.03-0.77,0.45-1.42,1.07-1.78l0.03-0.02c2.99-1.7,5.91-3.32,8.72-5.04c1.41-0.83,2.79-1.71,4.15-2.6c1.37-0.86,2.7-1.77,4-2.69
	c2.63-1.81,5.13-3.76,7.65-5.6c2.53-1.83,5.03-3.65,7.81-5.19l0.15-0.08c0.61-0.34,1.26-0.58,1.91-0.72l0.19-6.93
	c0.2-6.89,0.43-13.77,0.72-20.66c-2.22,3.05-4.79,5.89-7.77,8.22c-3.05,2.42-6.44,4.43-10.04,5.89c-1.8,0.73-3.64,1.34-5.47,1.92
	c-0.92,0.28-1.83,0.55-2.75,0.79c-0.92,0.23-1.81,0.54-2.85,0.47c-0.81-0.06-1.42-0.76-1.36-1.57c0.02-0.3,0.13-0.57,0.3-0.79
	l0.02-0.03c0.62-0.81,1.38-1.24,2.09-1.81c0.71-0.55,1.41-1.11,2.1-1.68c1.37-1.14,2.66-2.36,3.91-3.59
	c2.51-2.45,4.93-4.83,7.29-7.23l3.55-3.57c1.19-1.18,2.38-2.37,3.55-3.59c2.32-2.47,4.39-5.1,7.22-7.43l0.09-0.08
	c0.78-0.65,1.76-0.88,2.69-0.75c0.92-0.09,1.82,0.18,2.5,0.74l0.11,0.09c2.84,2.33,4.91,4.95,7.19,7.45l6.9,7.39
	c2.33,2.47,4.77,4.86,7.34,7.24c1.29,1.19,2.63,2.34,4.02,3.44c0.7,0.54,1.41,1.08,2.14,1.6c0.72,0.55,1.5,0.94,2.1,1.78l0.02,0.03
	c0.48,0.67,0.33,1.6-0.34,2.08c-0.22,0.16-0.47,0.25-0.73,0.27c-1.05,0.1-1.93-0.25-2.84-0.5c-0.91-0.27-1.81-0.56-2.71-0.86
	c-1.8-0.62-3.59-1.3-5.36-2.07c-3.54-1.52-6.9-3.52-9.99-5.88c-2.83-2.12-5.36-4.64-7.52-7.44c0.29,6.71,0.51,13.41,0.7,20.12
	l0.2,7.06c0.5,0.14,0.99,0.32,1.45,0.58l0.16,0.09c2.78,1.54,5.27,3.36,7.81,5.19c2.52,1.84,5.01,3.79,7.65,5.6
	c1.31,0.92,2.64,1.83,4,2.69c1.36,0.88,2.73,1.76,4.15,2.6c2.81,1.72,5.72,3.34,8.72,5.04l0.02,0.01c1.02,0.58,1.38,1.88,0.8,2.91
	c-0.38,0.67-1.07,1.05-1.78,1.08c-3.59,0.12-7.17-0.2-10.74-0.76c-1.77-0.31-3.55-0.67-5.31-1.11c-1.75-0.46-3.5-0.96-5.23-1.53
	c-3.44-1.17-6.86-2.55-10.05-4.35c-0.42-0.24-0.82-0.5-1.23-0.75l0.16,8.34l0.2,13.94c0.38,0.18,0.75,0.4,1.11,0.65l0.12,0.09
	c2.64,1.87,5.1,3.92,7.65,5.91c2.55,2,5.12,4.07,7.91,5.88c1.38,0.93,2.8,1.84,4.26,2.68c1.45,0.87,2.94,1.7,4.47,2.49
	c3.04,1.61,6.23,3.05,9.54,4.45l0.03,0.01c1.14,0.48,1.68,1.8,1.19,2.95c-0.34,0.79-1.08,1.29-1.88,1.36
	c-3.78,0.31-7.6,0.18-11.42-0.27c-1.91-0.24-3.81-0.57-5.71-0.95c-1.89-0.42-3.77-0.92-5.65-1.47c-3.71-1.2-7.44-2.57-10.91-4.46
	c-0.14-0.08-0.28-0.17-0.42-0.25l0.3,20.3c0.35,0.23,0.68,0.48,0.98,0.78l0.09,0.1c2.66,2.62,5.15,5.32,7.74,7.94
	c2.59,2.62,5.21,5.23,7.96,7.75c2.74,2.53,5.62,4.96,8.61,7.38c2.99,2.4,6.12,4.71,9.33,7.17l0.03,0.02
	c1.07,0.82,1.27,2.34,0.45,3.41c-0.54,0.7-1.39,1.03-2.2,0.94c-4.22-0.48-8.34-1.59-12.33-3.09c-4-1.48-7.85-3.41-11.5-5.68
	c-3.15-1.95-6.12-4.19-8.88-6.67l0.8,57.43l0.78,64.56l70.84-0.49l0.77-72.59l0.83-68.47c-0.17,0.17-0.33,0.33-0.51,0.5
	c-3.54,3.39-7.42,6.41-11.55,9.03c-4.12,2.62-8.46,4.88-12.97,6.64c-4.5,1.78-9.15,3.15-13.92,3.84c-1.32,0.19-2.54-0.72-2.74-2.04
	c-0.13-0.92,0.27-1.8,0.99-2.31l0.03-0.02c3.76-2.68,7.42-5.24,10.92-7.93c3.49-2.7,6.87-5.45,10.08-8.34
	c3.23-2.87,6.29-5.86,9.3-8.89c3.01-3.04,5.89-6.17,8.91-9.26l0.07-0.07c0.49-0.5,1.05-0.91,1.64-1.22l0.32-25.6
	c-0.76,0.47-1.53,0.93-2.31,1.36c-3.91,2.19-8.1,3.81-12.29,5.23c-2.12,0.66-4.24,1.26-6.38,1.77c-2.15,0.48-4.3,0.89-6.46,1.21
	c-4.32,0.6-8.66,0.84-12.96,0.61c-1.23-0.07-2.18-1.12-2.11-2.35c0.05-0.9,0.63-1.65,1.42-1.96l0.03-0.01
	c3.83-1.48,7.53-3.04,11.07-4.79c3.55-1.75,6.96-3.65,10.2-5.73c3.27-2.03,6.31-4.36,9.3-6.64c2.99-2.29,5.87-4.65,8.91-6.86
	l0.09-0.07c0.54-0.4,1.12-0.7,1.72-0.94l0.21-16.68l0.2-11.55c-1.02,0.68-2.06,1.34-3.12,1.95c-3.6,2.09-7.48,3.65-11.35,5.08
	c-1.95,0.69-3.93,1.28-5.91,1.84c-1.99,0.54-3.99,0.99-6,1.38c-4.03,0.73-8.09,1.2-12.17,1.19c-1.17,0-2.11-0.95-2.11-2.12
	c0-0.81,0.46-1.52,1.13-1.87l0.02-0.01c3.48-1.82,6.87-3.58,10.14-5.47c1.65-0.92,3.25-1.89,4.84-2.87c1.59-0.96,3.15-1.97,4.68-3
	c3.1-2,5.99-4.24,8.94-6.34c1.47-1.05,2.94-2.11,4.43-3.12c1.48-1.03,2.99-2.03,4.58-2.95l0.16-0.09c0.66-0.38,1.36-0.64,2.08-0.79
	l0.21-8.78c0.21-8.52,0.46-17.03,0.79-25.55c-0.26,0.36-0.52,0.72-0.78,1.08c-2.61,3.57-5.61,6.89-9.09,9.65
	c-3.45,2.78-7.26,5.11-11.32,6.85c-2.03,0.87-4.1,1.62-6.16,2.32c-1.04,0.34-2.07,0.67-3.11,0.97c-1.04,0.29-2.05,0.66-3.21,0.64
	c-0.79-0.01-1.42-0.66-1.41-1.45c0.01-0.34,0.13-0.66,0.34-0.9l0.02-0.03c0.74-0.86,1.63-1.35,2.45-1.98
	c0.83-0.6,1.65-1.23,2.45-1.86c1.6-1.27,3.13-2.62,4.6-3.99c2.96-2.73,5.8-5.44,8.56-8.19l4.12-4.13c1.38-1.37,2.74-2.76,4.08-4.19
	c2.66-2.88,5.04-5.95,8.13-8.74l0.07-0.06c0.74-0.67,1.68-0.94,2.6-0.86c0.96-0.09,1.89,0.23,2.59,0.84l0.09,0.08
	c3.1,2.79,5.48,5.85,8.11,8.76c2.66,2.86,5.28,5.72,8.01,8.54c2.72,2.82,5.6,5.54,8.62,8.21c1.51,1.33,3.08,2.62,4.71,3.84
	c0.82,0.61,1.65,1.21,2.49,1.79c0.84,0.6,1.74,1.06,2.46,1.95l0.02,0.03c0.5,0.62,0.41,1.53-0.21,2.03
	c-0.25,0.2-0.55,0.31-0.85,0.32c-1.18,0.05-2.17-0.35-3.2-0.67c-1.03-0.32-2.05-0.68-3.07-1.04c-2.04-0.74-4.06-1.56-6.05-2.47
	c-3.99-1.81-7.77-4.13-11.26-6.84c-3.51-2.69-6.65-5.87-9.28-9.42c-0.09-0.12-0.18-0.24-0.27-0.36c0.32,8.28,0.56,16.57,0.77,24.85
	l0.22,8.92c0.54,0.15,1.06,0.35,1.56,0.64l0.17,0.1c1.59,0.92,3.1,1.91,4.58,2.95c1.5,1.01,2.96,2.06,4.43,3.12
	c2.95,2.09,5.85,4.34,8.94,6.34c1.53,1.03,3.09,2.04,4.68,3c1.59,0.98,3.19,1.95,4.84,2.87c3.27,1.89,6.67,3.65,10.14,5.47
	l0.02,0.01c1.04,0.54,1.44,1.82,0.89,2.85c-0.38,0.72-1.11,1.13-1.87,1.14c-4.07,0.01-8.13-0.46-12.17-1.19
	c-2.01-0.39-4.01-0.85-6-1.38c-1.98-0.56-3.96-1.15-5.91-1.84c-3.87-1.43-7.75-2.99-11.35-5.08c-0.88-0.51-1.75-1.04-2.6-1.6
	l0.19,11.2l0.21,16.89c0.42,0.2,0.82,0.44,1.21,0.72l0.09,0.07c3.04,2.22,5.92,4.57,8.91,6.86c2.99,2.28,6.03,4.6,9.3,6.64
	c3.24,2.08,6.65,3.98,10.2,5.73c3.55,1.76,7.25,3.31,11.07,4.79l0.03,0.01c1.15,0.45,1.72,1.74,1.27,2.89
	c-0.33,0.84-1.11,1.38-1.96,1.42c-4.3,0.23-8.64-0.01-12.96-0.61c-2.16-0.31-4.31-0.73-6.46-1.21c-2.14-0.51-4.26-1.11-6.38-1.77
	C1064,522.49,1059.81,520.87,1055.9,518.69z M854.95,699.36c0,2.23,1.81,4.04,4.04,4.04s4.04-1.81,4.04-4.04s-1.81-4.04-4.04-4.04
	S854.95,697.13,854.95,699.36z M840.86,698.86c0,2.51,2.04,4.55,4.55,4.55c2.51,0,4.55-2.04,4.55-4.55s-2.04-4.55-4.55-4.55
	C842.9,694.31,840.86,696.35,840.86,698.86z M886.76,698.76c0,2.73,2.22,4.95,4.95,4.95s4.95-2.22,4.95-4.95s-2.22-4.95-4.95-4.95
	S886.76,696.02,886.76,698.76z M873.62,699.12c0,2.1,1.71,3.81,3.81,3.81s3.81-1.71,3.81-3.81s-1.71-3.81-3.81-3.81
	S873.62,697.02,873.62,699.12z M893.95,677.97c-8.95,8.86-20.29,9.46-24.01,9.65c-1.13,0.06-2.56,0.13-4.2,0.14
	c-6.5,0-16.21-1.19-22.86-9.3c-8.35-10.18-5.26-23.33-4.55-25.86c0.31-1.11,1.35-1.86,2.49-1.83c1.15,0.04,2.13,0.86,2.36,1.99
	c0.34,1.63,1.17,4,3.22,6.04c0.36,0.36,0.75,0.7,1.16,1.01c0.42-1.38,0.68-3.14,0.38-5.14c-0.46-3.05-2.04-5.17-2.94-6.16
	c-0.8-0.88-0.87-2.19-0.17-3.15c0.7-0.96,1.97-1.3,3.05-0.81c3.45,1.55,6.52,3.91,8.89,6.81c0.3,0.36,0.58,0.73,0.85,1.11
	c1.45-5.99,4.07-11.19,7.75-15.29c3.86-4.3,9.29-7.86,12.12-7.94c1.19-0.03,1.96,0.46,2.38,0.88c1.72,1.71,0.46,3.77-0.38,5.13
	c-0.96,1.57-2.16,3.52-1.67,5.57c0.24,1,0.72,1.66,1.39,2.56c0.71,0.96,1.59,2.16,2.25,3.94c0.02,0.05,0.04,0.1,0.05,0.15
	c0.46-1.4,0.83-2.84,1.08-4.3c0.16-0.91,0.81-1.66,1.69-1.94c0.88-0.29,1.84-0.06,2.51,0.58c1.15,1.11,3.77,4.07,4.4,8.54l7.35-7.63
	c0.64-0.66,1.58-0.92,2.47-0.68c0.88,0.24,1.56,0.95,1.77,1.85C903.26,645.98,907.18,664.87,893.95,677.97z M898.56,649.88
	l-9.26,9.62c-0.86,0.89-2.24,1.02-3.25,0.3c-1.01-0.72-1.34-2.07-0.78-3.17c0.56-1.1,1.19-2.87,1.03-5.04
	c-0.05-0.63-0.16-1.22-0.31-1.77c-0.36,1-0.76,1.99-1.21,2.96c-1.13,2.46-2.54,4.79-4.2,6.94c-0.75,0.98-2.11,1.26-3.19,0.66
	c-1.08-0.6-1.56-1.9-1.13-3.06c1.19-3.2,1.36-5.99,0.51-8.28c-0.41-1.12-0.96-1.85-1.59-2.71c-0.83-1.12-1.76-2.38-2.24-4.37
	c-0.46-1.92-0.25-3.67,0.23-5.2c-1.32,0.99-2.75,2.25-4.09,3.74c-4.5,5.01-7.15,12.06-7.69,20.4c-0.08,1.21-1.02,2.2-2.23,2.33
	c-1.22,0.13-2.34-0.63-2.67-1.8c-0.7-2.47-1.92-4.82-3.52-6.81c0.5,4.59-1.05,8.2-2.04,10c-0.63,1.14-2.04,1.59-3.21,1.06
	c-1.82-0.82-3.44-1.94-4.84-3.33c-0.25-0.25-0.49-0.5-0.71-0.75c0.02,4.18,0.98,9.32,4.58,13.7c5.24,6.39,13.04,7.44,18.72,7.47
	c-1.44-2.62-3.3-5.02-5.51-7.07c-0.91-0.84-0.97-2.27-0.12-3.18c0.82-0.89,2.2-0.96,3.11-0.18c1.32,1.13,2.55,2.37,3.68,3.7
	l-0.07-7.39c-0.01-1.17,0.93-2.13,2.1-2.14c1.14-0.01,2.07,0.88,2.14,2l0.49,8.49c1.57-1.62,3.34-3.02,5.28-4.14
	c1.02-0.59,2.32-0.23,2.91,0.79c0.57,0.98,0.25,2.23-0.69,2.85c-2.35,1.53-4.33,3.56-5.83,5.88c4.5-0.54,11.66-2.19,17.47-7.94
	C898.32,666.6,898.98,656,898.56,649.88z M851.73,640.22c1.05-0.35,1.61-1.48,1.26-2.53c-3.61-10.82-4.17-20.7-1.67-29.38
	c0.62-2.14,1.39-4.12,2.14-6.04c1.98-5.08,3.85-9.88,2.49-16.41c-0.43-2.06-2.93-12.38-9.79-12.88c-2.23-0.16-4.68,0.8-6.7,2.65
	c-2.4,2.19-3.87,5.29-3.93,8.31c-0.09,4.4,2.81,8.35,5.72,10.33c1.3,0.88,3.2,1.78,4.87,1.07c0.59-0.25,1.39-0.81,1.86-2.07
	c0.39-1.04-0.15-2.15-1.19-2.54c-0.88-0.33-1.85,0.02-2.36,0.77c-1.5-0.57-4.98-3.64-4.9-7.47c0.04-1.94,1.02-3.97,2.63-5.43
	c1.2-1.09,2.6-1.71,3.72-1.61c3.45,0.25,5.62,7.09,6.17,9.71c1.12,5.36-0.46,9.43-2.3,14.13c-0.78,2-1.58,4.07-2.25,6.38
	c-2.73,9.47-2.15,20.15,1.72,31.75c0.28,0.84,1.06,1.37,1.9,1.37C851.3,640.32,851.52,640.29,851.73,640.22z M870.64,628.27
	c4.8-9.54,10-24.33,7.49-40.61c-0.63-4.1-1.29-8.34-3.74-13.46c-2.67-5.57-5.8-8.71-8.32-11.23c-2.59-2.59-4.3-4.3-4.75-7.54
	c-0.66-4.81,1.88-11.41,7.13-13.69c2.79-1.21,6.55-1.23,9.37-0.06c1.48,0.62,2.52,1.51,2.92,2.52c0.51,1.29,0.26,3.38-0.57,4.85
	c-0.47,0.83-1.06,1.35-1.63,1.45c-0.92,0.15-2.51-0.72-3.76-2.67c-0.6-0.93-1.83-1.2-2.76-0.6c-0.93,0.6-1.2,1.83-0.6,2.76
	c2.06,3.21,5.04,4.92,7.78,4.46c1.79-0.3,3.37-1.51,4.46-3.42c1.44-2.53,1.77-5.86,0.82-8.28c-0.81-2.06-2.57-3.7-5.11-4.75
	c-3.82-1.59-8.72-1.55-12.49,0.08c-7.06,3.06-10.38,11.5-9.51,17.9c0.62,4.57,3.18,7.12,5.88,9.82c2.42,2.42,5.17,5.17,7.54,10.13
	c2.2,4.59,2.78,8.36,3.39,12.35c2.35,15.22-2.57,29.17-7.11,38.19c-0.5,0.99-0.1,2.19,0.89,2.69c0.29,0.15,0.6,0.21,0.9,0.21
	C869.58,629.37,870.29,628.96,870.64,628.27z M886.36,635.45c2.52-3.56,4.44-7.41,5.71-11.42c2.43-7.71,1.96-14.45,1.58-19.86
	c-0.41-5.83-0.52-9.23,1.89-11.33c1.49-1.3,4.02-2.23,5.97-1.5c1.52,0.56,3.08,2.27,3.11,4.44c0.04,2.3-1.68,4.4-4.08,4.99
	c-1.07,0.26-1.73,1.35-1.46,2.42c0.26,1.07,1.34,1.72,2.42,1.46c4.19-1.03,7.19-4.79,7.13-8.94c-0.06-3.55-2.41-6.9-5.72-8.13
	c-3.59-1.33-7.61,0.16-9.99,2.23c-4.04,3.51-3.68,8.67-3.26,14.63c0.38,5.34,0.8,11.39-1.4,18.37c-1.14,3.62-2.88,7.09-5.16,10.32
	c-0.64,0.9-0.42,2.15,0.48,2.79c0.35,0.25,0.75,0.37,1.15,0.37C885.36,636.29,885.97,636,886.36,635.45z"/>
<path id="Sky" d="M495.56,283.51c3.61-3.27,5.3-6.48,6.31-6.03c1.47,0.65,0.52,9.34-3.76,16.07c-8.06,12.7-25.04,13.96-26.77,14.07
	c-1.84,0.11-19.32,0.85-30.96-13.16c-1.97-2.37-8.49-10.84-8.39-22.92c0.16-18.55,15.83-34.31,29.56-35.83
	c3.69-0.41,9.67,0.01,10.02,1.67c0.32,1.49-4.35,2.72-8.49,6.28c-5.31,4.55-8.91,12.17-8.83,19.45
	c0.12,12.01,10.24,23.23,21.74,25.13C476.76,288.36,488.23,290.15,495.56,283.51z M240.38,242.28c-1.84-0.68-3.63-0.96-5.42-1.11
	c-0.21-0.02-0.43-0.03-0.64-0.04c-0.04-1.13-0.14-2.26-0.32-3.39c-0.31-1.75-0.73-3.5-1.63-5.24c-0.15-0.3-0.4-0.55-0.72-0.7
	c-0.79-0.38-1.73-0.04-2.11,0.75c-0.84,1.77-1.2,3.53-1.46,5.29c-0.15,1.19-0.22,2.38-0.22,3.57c-1.15,0.14-2.3,0.32-3.44,0.57
	c-1.73,0.4-3.46,0.89-5.15,1.7c-0.38,0.19-0.69,0.54-0.81,0.98c-0.21,0.81,0.27,1.63,1.08,1.84c1.82,0.47,3.6,0.63,5.38,0.69
	c1.12,0.03,2.24-0.01,3.35-0.09c0.06,0.42,0.1,0.84,0.18,1.26c0.31,1.75,0.72,3.5,1.42,5.24c0.16,0.38,0.47,0.71,0.89,0.86
	c0.79,0.29,1.66-0.12,1.94-0.91c0.64-1.77,1-3.53,1.25-5.29c0.09-0.66,0.15-1.33,0.21-1.99c0.42-0.1,0.84-0.21,1.26-0.32
	c1.72-0.49,3.43-1.11,5.11-2.13c0.16-0.1,0.29-0.25,0.36-0.44C241.05,242.94,240.83,242.45,240.38,242.28z M224.9,347.08
	c-1.21-0.24-2.42-0.32-3.62-0.35c-0.16,0-0.31,0-0.47,0c-0.08-1.04-0.19-2.09-0.37-3.12c-0.3-1.53-0.68-3.06-1.41-4.56
	c-0.18-0.37-0.52-0.67-0.94-0.79c-0.81-0.23-1.65,0.23-1.88,1.04c-0.46,1.6-0.57,3.17-0.61,4.74c-0.01,0.99,0.06,1.98,0.15,2.96
	c-0.54,0.06-1.08,0.13-1.62,0.21c-1.19,0.18-2.37,0.4-3.55,0.76c-0.51,0.15-0.92,0.59-1.01,1.15c-0.14,0.79,0.39,1.55,1.19,1.68
	c1.21,0.21,2.41,0.29,3.61,0.32c0.66,0.02,1.31,0.02,1.96,0.01c0.14,0.73,0.29,1.45,0.47,2.18c0.4,1.53,0.83,3.05,1.51,4.55
	c0.12,0.26,0.35,0.47,0.65,0.54c0.52,0.13,1.05-0.18,1.18-0.7c0.41-1.6,0.57-3.17,0.7-4.74c0.05-0.72,0.08-1.45,0.09-2.17
	c0.2-0.03,0.4-0.04,0.59-0.07c1.19-0.17,2.37-0.41,3.55-0.79c0.49-0.16,0.88-0.57,0.99-1.11
	C226.21,348.01,225.69,347.24,224.9,347.08z M304.85,423.69c-0.92-0.57-1.83-0.82-2.74-1c-0.38-0.07-0.76-0.1-1.13-0.12
	c-0.09-1.55-0.25-3.11-0.55-4.66c-0.08-0.41-0.4-0.75-0.83-0.82c-0.56-0.1-1.1,0.27-1.21,0.83c-0.29,1.61-0.44,3.21-0.52,4.82
	c-0.39,0.06-0.77,0.13-1.16,0.23c-0.9,0.23-1.79,0.53-2.67,1.05c-0.13,0.08-0.25,0.2-0.32,0.34c-0.21,0.41-0.04,0.92,0.37,1.13
	c0.92,0.46,1.83,0.71,2.73,0.89c0.33,0.06,0.66,0.1,0.99,0.13c0.02,1.68,0.16,3.37,0.87,5.05c0.09,0.2,0.25,0.37,0.46,0.46
	c0.44,0.18,0.94-0.02,1.12-0.46c0.7-1.68,0.82-3.36,0.83-5.04c0.38-0.05,0.76-0.1,1.13-0.19c0.9-0.23,1.79-0.54,2.67-1.16
	c0.09-0.07,0.18-0.15,0.24-0.26C305.39,424.49,305.26,423.95,304.85,423.69z M392.72,355.58c-1.15-0.36-2.31-0.57-3.46-0.75
	c-0.51-0.08-1.02-0.14-1.53-0.19c-0.05-0.6-0.11-1.21-0.19-1.81c-0.17-1.16-0.36-2.32-0.71-3.48c-0.1-0.33-0.36-0.61-0.72-0.72
	c-0.56-0.17-1.15,0.15-1.32,0.72c-0.34,1.16-0.54,2.32-0.71,3.48c-0.07,0.53-0.13,1.06-0.17,1.59c-0.53,0-1.06,0-1.59,0.03
	c-1.16,0.05-2.31,0.17-3.47,0.44c-0.51,0.12-0.94,0.52-1.08,1.07c-0.2,0.78,0.28,1.57,1.06,1.77c1.15,0.29,2.31,0.42,3.46,0.48
	c0.48,0.03,0.96,0.04,1.45,0.05c0,0.51,0.02,1.02,0.08,1.53c0.14,1.16,0.38,2.32,0.97,3.48c0.11,0.21,0.28,0.39,0.5,0.5
	c0.56,0.28,1.25,0.06,1.53-0.5c0.59-1.16,0.83-2.32,0.97-3.48c0.06-0.57,0.08-1.15,0.08-1.72c0.45-0.04,0.91-0.09,1.36-0.15
	c1.16-0.16,2.31-0.36,3.47-0.7c0.26-0.08,0.49-0.29,0.57-0.57C393.43,356.21,393.17,355.73,392.72,355.58z M375.53,229.53
	c-1.64-0.77-3.26-1.08-4.88-1.24c-0.4-0.04-0.8-0.06-1.21-0.07c-0.03-0.95-0.1-1.9-0.22-2.85c-0.28-1.94-0.72-3.88-1.69-5.8
	c-0.16-0.32-0.44-0.59-0.8-0.74c-0.8-0.32-1.71,0.06-2.03,0.86c-0.8,1.99-1.07,3.96-1.18,5.92c-0.05,0.96-0.03,1.92,0.02,2.88
	c-0.84,0.09-1.69,0.19-2.53,0.32c-1.6,0.28-3.2,0.58-4.79,1.11c-0.46,0.16-0.84,0.53-0.96,1.03c-0.2,0.79,0.27,1.6,1.06,1.8
	c1.63,0.42,3.24,0.61,4.86,0.77c0.95,0.08,1.91,0.12,2.86,0.15c0.15,1.21,0.33,2.42,0.55,3.62c0.37,1.94,0.82,3.88,1.48,5.81
	c0.12,0.34,0.41,0.63,0.79,0.72c0.6,0.15,1.21-0.22,1.36-0.82c0.49-1.98,0.76-3.95,0.97-5.91c0.11-1.18,0.18-2.36,0.23-3.55
	c0.48-0.04,0.95-0.1,1.43-0.18c1.6-0.28,3.2-0.7,4.78-1.58c0.22-0.13,0.41-0.32,0.53-0.57
	C376.44,230.59,376.16,229.83,375.53,229.53z M561.67,306.57c-0.87-0.33-1.74-0.5-2.61-0.6c-0.33-0.04-0.66-0.07-0.98-0.09
	c-0.02-0.38-0.04-0.77-0.09-1.15c-0.14-1.07-0.35-2.14-0.79-3.21c-0.09-0.22-0.26-0.4-0.49-0.5c-0.47-0.2-1.01,0.02-1.21,0.49
	c-0.45,1.07-0.68,2.13-0.83,3.2c-0.06,0.42-0.09,0.84-0.12,1.25c-0.23,0.03-0.46,0.05-0.68,0.08c-0.86,0.13-1.73,0.32-2.59,0.68
	c-0.28,0.11-0.51,0.34-0.62,0.64c-0.21,0.57,0.09,1.21,0.66,1.42c0.87,0.32,1.74,0.48,2.61,0.57c0.21,0.03,0.42,0.03,0.63,0.05
	c0.04,0.57,0.1,1.14,0.18,1.71c0.18,1.07,0.38,2.14,0.8,3.21c0.08,0.19,0.23,0.36,0.43,0.44c0.4,0.16,0.85-0.03,1.01-0.43
	c0.43-1.07,0.65-2.13,0.84-3.2c0.09-0.59,0.16-1.18,0.21-1.76c0.36-0.04,0.73-0.08,1.09-0.14c0.86-0.14,1.73-0.34,2.59-0.71
	c0.25-0.11,0.47-0.32,0.57-0.6C562.49,307.38,562.22,306.78,561.67,306.57z M613.32,219.62c-0.95-0.41-1.89-0.59-2.83-0.74
	c-0.39-0.05-0.78-0.08-1.17-0.1c-0.08-0.75-0.18-1.51-0.31-2.26c-0.2-1.22-0.45-2.44-0.83-3.64c-0.12-0.38-0.44-0.68-0.86-0.75
	c-0.59-0.1-1.15,0.3-1.25,0.9c-0.21,1.25-0.27,2.49-0.3,3.72c-0.02,0.73-0.01,1.45,0.01,2.18c-0.3,0.04-0.6,0.08-0.9,0.15
	c-0.93,0.2-1.85,0.47-2.77,0.97c-0.21,0.12-0.39,0.3-0.5,0.54c-0.27,0.58-0.01,1.27,0.57,1.54c0.95,0.43,1.89,0.64,2.83,0.78
	c0.36,0.05,0.71,0.07,1.06,0.1c0.05,0.37,0.09,0.75,0.14,1.12c0.18,1.22,0.42,2.44,0.81,3.64c0.13,0.41,0.48,0.73,0.93,0.8
	c0.64,0.11,1.25-0.32,1.36-0.97c0.21-1.25,0.27-2.49,0.28-3.72c0-0.34-0.01-0.68-0.02-1.01c0.35-0.05,0.69-0.1,1.04-0.17
	c0.93-0.21,1.85-0.46,2.77-0.93c0.23-0.12,0.43-0.32,0.55-0.59C614.2,220.59,613.92,219.88,613.32,219.62z M739.28,360.27
	c-1.36-0.39-2.72-0.57-4.08-0.69c-0.67-0.06-1.34-0.1-2.01-0.12c0-1.04-0.02-2.09-0.1-3.13c-0.14-1.64-0.33-3.29-0.81-4.94
	c-0.13-0.45-0.48-0.84-0.97-1c-0.78-0.25-1.61,0.17-1.87,0.95c-0.53,1.63-0.78,3.27-0.98,4.91c-0.12,1.13-0.18,2.26-0.21,3.39
	c-0.39,0.04-0.78,0.07-1.17,0.12c-1.35,0.18-2.69,0.42-4.03,0.87c-0.31,0.11-0.57,0.36-0.66,0.7c-0.15,0.55,0.17,1.11,0.72,1.25
	c1.36,0.37,2.72,0.54,4.07,0.64c0.36,0.03,0.72,0.03,1.07,0.05c0.03,0.94,0.07,1.88,0.15,2.83c0.14,1.64,0.32,3.29,0.69,4.94
	c0.12,0.51,0.51,0.95,1.06,1.09c0.78,0.2,1.58-0.26,1.78-1.04c0.43-1.63,0.67-3.27,0.86-4.91c0.12-1,0.19-1.99,0.26-2.99
	c0.75-0.06,1.49-0.15,2.24-0.25c1.35-0.2,2.69-0.46,4.03-0.93c0.27-0.09,0.49-0.31,0.57-0.61
	C740.04,360.91,739.76,360.41,739.28,360.27z M789.12,268.32c-1.56-0.53-3.1-0.74-4.64-0.87c-0.94-0.07-1.87-0.08-2.8-0.06
	c-0.01-1.1-0.05-2.19-0.16-3.29c-0.13-1.35-0.31-2.7-0.67-4.05c-0.13-0.49-0.51-0.9-1.04-1.04c-0.78-0.21-1.59,0.26-1.8,1.04
	c-0.36,1.35-0.54,2.7-0.67,4.05c-0.12,1.2-0.16,2.4-0.16,3.61c-0.63,0.08-1.26,0.16-1.89,0.26c-1.52,0.27-3.04,0.58-4.56,1.12
	c-0.25,0.09-0.46,0.3-0.53,0.58c-0.12,0.45,0.15,0.91,0.6,1.03c1.55,0.41,3.09,0.58,4.64,0.72c0.64,0.05,1.28,0.08,1.92,0.1
	c0.02,0.23,0.04,0.46,0.07,0.69c0.19,1.35,0.44,2.7,0.94,4.05c0.11,0.29,0.35,0.55,0.66,0.66c0.59,0.22,1.24-0.08,1.46-0.66
	c0.5-1.35,0.75-2.7,0.94-4.05c0.03-0.25,0.05-0.5,0.07-0.75c1.05-0.06,2.09-0.16,3.13-0.33c1.52-0.27,3.04-0.61,4.55-1.28
	c0.2-0.09,0.37-0.26,0.44-0.48C789.78,268.93,789.55,268.46,789.12,268.32z M866.66,367.3c-1.23-0.48-2.45-0.7-3.66-0.85
	c-0.58-0.06-1.15-0.1-1.72-0.12c-0.04-0.82-0.1-1.64-0.18-2.46c-0.15-1.55-0.38-3.11-0.77-4.65c-0.13-0.52-0.56-0.95-1.12-1.07
	c-0.79-0.16-1.55,0.35-1.71,1.14c-0.32,1.57-0.46,3.13-0.54,4.69c-0.04,0.88-0.06,1.75-0.06,2.63c-0.36,0.06-0.72,0.13-1.08,0.22
	c-1.18,0.29-2.36,0.68-3.52,1.37c-0.17,0.1-0.32,0.26-0.41,0.46c-0.23,0.52,0.01,1.12,0.52,1.35c1.24,0.55,2.46,0.78,3.67,0.92
	c0.32,0.04,0.64,0.06,0.96,0.08c0.05,0.77,0.11,1.54,0.19,2.31c0.16,1.55,0.37,3.11,0.73,4.65c0.13,0.54,0.57,0.99,1.15,1.1
	c0.79,0.14,1.54-0.38,1.68-1.17c0.28-1.56,0.42-3.13,0.5-4.68c0.05-0.82,0.07-1.64,0.08-2.45c0.63-0.09,1.26-0.21,1.89-0.36
	c1.18-0.3,2.36-0.67,3.53-1.3c0.2-0.11,0.37-0.29,0.46-0.52C867.43,368.08,867.17,367.5,866.66,367.3z M900.08,452.33
	c-0.69-0.28-1.38-0.42-2.06-0.5c-0.08-0.83-0.21-1.65-0.45-2.48c-0.1-0.32-0.36-0.6-0.7-0.7c-0.55-0.16-1.14,0.15-1.3,0.7
	c-0.25,0.84-0.38,1.68-0.46,2.52c-0.15,0.02-0.29,0.04-0.44,0.06c-0.6,0.11-1.2,0.27-1.8,0.57c-0.21,0.1-0.39,0.28-0.5,0.51
	c-0.26,0.55-0.03,1.2,0.51,1.46c0.6,0.29,1.21,0.44,1.81,0.55c0.13,0.02,0.25,0.03,0.38,0.05c0.05,0.92,0.16,1.85,0.4,2.77
	c0.1,0.39,0.4,0.71,0.82,0.82c0.61,0.16,1.23-0.21,1.39-0.82c0.23-0.92,0.34-1.84,0.39-2.76c0.68-0.08,1.35-0.23,2.03-0.52
	c0.29-0.12,0.53-0.35,0.65-0.66C901,453.29,900.7,452.59,900.08,452.33z M972.91,321.51c-1.07-0.3-2.13-0.45-3.19-0.55
	c-0.11-0.01-0.22-0.01-0.33-0.02c-0.01-0.65-0.05-1.3-0.12-1.95c-0.13-1.07-0.32-2.14-0.72-3.21c-0.14-0.38-0.44-0.7-0.84-0.87
	c-0.78-0.33-1.67,0.04-2,0.81c-0.44,1.06-0.68,2.12-0.85,3.18c-0.11,0.68-0.17,1.36-0.21,2.05c-0.43,0.04-0.85,0.08-1.28,0.14
	c-1.06,0.15-2.11,0.36-3.16,0.75c-0.26,0.1-0.48,0.31-0.57,0.6c-0.16,0.5,0.12,1.03,0.61,1.18c1.07,0.34,2.13,0.5,3.19,0.6
	c0.41,0.04,0.82,0.06,1.24,0.08c0.02,0.33,0.04,0.66,0.08,0.99c0.14,1.07,0.32,2.14,0.69,3.21c0.14,0.4,0.45,0.74,0.87,0.91
	c0.78,0.31,1.66-0.07,1.96-0.85c0.42-1.06,0.64-2.12,0.82-3.18c0.06-0.42,0.11-0.84,0.15-1.26c0.18-0.02,0.36-0.03,0.53-0.06
	c1.06-0.15,2.11-0.34,3.16-0.69c0.29-0.1,0.54-0.34,0.63-0.66C973.73,322.2,973.43,321.66,972.91,321.51z M913.63,265.14
	c-0.78-0.22-1.56-0.3-2.33-0.33c-0.1,0-0.19,0-0.29,0c-0.03-0.45-0.07-0.9-0.12-1.35c-0.11-0.87-0.27-1.73-0.57-2.59
	c-0.15-0.43-0.5-0.8-0.98-0.94c-0.79-0.24-1.62,0.21-1.86,1c-0.26,0.87-0.39,1.75-0.47,2.62c-0.05,0.57-0.07,1.14-0.07,1.71
	c-0.07,0.02-0.14,0.03-0.2,0.04c-0.75,0.19-1.5,0.43-2.23,0.83c-0.19,0.1-0.35,0.28-0.43,0.5c-0.16,0.47,0.09,0.98,0.56,1.14
	c0.79,0.27,1.56,0.38,2.34,0.45c0.04,0,0.07,0,0.11,0.01c0.11,1.04,0.28,2.09,0.59,3.13c0.14,0.48,0.53,0.87,1.05,1.01
	c0.79,0.2,1.59-0.27,1.79-1.06c0.28-1.09,0.41-2.18,0.47-3.27c0.19-0.03,0.38-0.06,0.56-0.1c0.75-0.16,1.5-0.36,2.24-0.71
	c0.28-0.13,0.5-0.38,0.59-0.7C914.56,265.92,914.21,265.3,913.63,265.14z M1010.96,164.77c-1.15-0.39-2.31-0.59-3.46-0.74
	c-0.41-0.05-0.82-0.08-1.23-0.11c-0.02-0.61-0.06-1.21-0.13-1.82c-0.11-1.16-0.28-2.32-0.61-3.48c-0.11-0.38-0.41-0.7-0.82-0.82
	c-0.63-0.18-1.29,0.19-1.47,0.82c-0.33,1.16-0.5,2.32-0.61,3.48c-0.06,0.59-0.1,1.18-0.13,1.76c-0.63,0.03-1.27,0.08-1.9,0.16
	c-1.15,0.15-2.3,0.35-3.44,0.75c-0.29,0.1-0.53,0.34-0.64,0.65c-0.18,0.54,0.11,1.12,0.66,1.3c1.15,0.38,2.3,0.56,3.46,0.69
	c0.64,0.07,1.28,0.1,1.92,0.12c0.03,0.51,0.08,1.01,0.14,1.52c0.14,1.16,0.34,2.32,0.72,3.48c0.1,0.3,0.34,0.56,0.66,0.66
	c0.54,0.17,1.12-0.12,1.29-0.66c0.38-1.16,0.58-2.32,0.72-3.48c0.07-0.55,0.12-1.09,0.15-1.64c0.43-0.04,0.87-0.08,1.3-0.14
	c1.15-0.18,2.3-0.39,3.44-0.81c0.25-0.09,0.45-0.29,0.54-0.55C1011.68,165.45,1011.43,164.93,1010.96,164.77z M863.66,166.95
	c-1.33-0.5-2.64-0.68-3.95-0.76c-0.4-0.02-0.79-0.03-1.19-0.03c-0.08-1.27-0.21-2.54-0.39-3.8c-0.23-1.41-0.48-2.82-0.92-4.22
	c-0.1-0.32-0.37-0.59-0.72-0.69c-0.55-0.15-1.12,0.18-1.26,0.73c-0.38,1.42-0.57,2.84-0.74,4.26c-0.13,1.34-0.21,2.68-0.23,4.02
	c-2.09,0.24-4.18,0.59-6.26,1.24c-0.35,0.11-0.64,0.41-0.73,0.79c-0.13,0.58,0.23,1.17,0.82,1.3c2.11,0.48,4.21,0.66,6.31,0.73
	c0.02,0.13,0.02,0.27,0.04,0.4c0.2,1.41,0.5,2.82,1.14,4.22c0.11,0.24,0.32,0.45,0.59,0.56c0.56,0.23,1.2-0.04,1.43-0.6
	c0.58-1.43,0.82-2.85,0.95-4.26c0.01-0.12,0.01-0.23,0.02-0.35c0.43-0.03,0.87-0.07,1.3-0.13c1.3-0.19,2.6-0.48,3.88-1.08
	c0.29-0.14,0.52-0.38,0.64-0.7C864.64,167.92,864.31,167.19,863.66,166.95z M720.95,178.73c-1.42-0.24-2.82-0.33-4.22-0.36
	c-0.45-0.01-0.89,0-1.34,0c-0.02-0.69-0.05-1.39-0.1-2.08c-0.16-1.85-0.41-3.71-1-5.56c-0.14-0.43-0.48-0.8-0.94-0.96
	c-0.78-0.27-1.63,0.15-1.9,0.93c-0.63,1.84-0.92,3.69-1.13,5.54c-0.09,0.82-0.14,1.63-0.17,2.45c-0.59,0.07-1.19,0.14-1.78,0.24
	c-1.38,0.22-2.76,0.51-4.13,0.98c-0.48,0.17-0.86,0.58-0.96,1.11c-0.15,0.8,0.37,1.56,1.17,1.72c1.42,0.27,2.82,0.36,4.23,0.39
	c0.49,0.01,0.99,0,1.48-0.01c0.04,1.41,0.11,2.81,0.23,4.22c0.18,1.85,0.39,3.71,0.81,5.56c0.12,0.52,0.52,0.95,1.07,1.09
	c0.78,0.2,1.57-0.28,1.77-1.06c0.46-1.85,0.72-3.69,0.94-5.54c0.17-1.55,0.28-3.1,0.35-4.65c0.57-0.07,1.14-0.14,1.7-0.24
	c1.38-0.23,2.76-0.51,4.13-0.95c0.5-0.16,0.89-0.59,0.99-1.14C722.28,179.62,721.75,178.86,720.95,178.73z M565.06,179
	c-0.55-0.11-1.11-0.17-1.66-0.21c-0.04-0.39-0.08-0.77-0.13-1.16c-0.14-0.96-0.33-1.92-0.68-2.87c-0.13-0.36-0.43-0.66-0.82-0.77
	c-0.66-0.2-1.36,0.18-1.56,0.84c-0.29,0.97-0.43,1.94-0.51,2.9c-0.03,0.34-0.04,0.69-0.06,1.03c-1.15,0.07-2.3,0.22-3.43,0.56
	c-0.52,0.16-0.93,0.6-1.02,1.17c-0.12,0.79,0.42,1.54,1.21,1.66c1.12,0.17,2.23,0.18,3.34,0.11c0.04,0.42,0.09,0.83,0.15,1.25
	c0.14,0.96,0.33,1.92,0.66,2.87c0.13,0.37,0.43,0.67,0.84,0.79c0.66,0.19,1.35-0.19,1.54-0.86c0.28-0.97,0.41-1.94,0.49-2.9
	c0.05-0.55,0.07-1.11,0.08-1.66c0.57-0.12,1.14-0.26,1.71-0.45c0.39-0.13,0.71-0.47,0.79-0.9C566.12,179.74,565.7,179.12,565.06,179
	z M496.33,161.73c-1.73-0.49-3.45-0.69-5.17-0.81c-0.46-0.03-0.91-0.03-1.37-0.04c-0.06-1.53-0.22-3.07-0.49-4.6
	c-0.34-1.87-0.81-3.74-1.69-5.6c-0.1-0.21-0.27-0.39-0.5-0.5c-0.52-0.24-1.13-0.02-1.37,0.5c-0.88,1.87-1.35,3.74-1.69,5.6
	c-0.29,1.6-0.44,3.21-0.5,4.81c-0.89,0.07-1.78,0.16-2.67,0.28c-1.71,0.22-3.41,0.49-5.11,0.95c-0.37,0.1-0.67,0.4-0.75,0.81
	c-0.11,0.56,0.26,1.11,0.82,1.23c1.73,0.34,3.44,0.49,5.16,0.61c0.87,0.05,1.75,0.08,2.62,0.1c0.05,0.81,0.12,1.63,0.23,2.44
	c0.27,1.87,0.65,3.74,1.41,5.6c0.15,0.37,0.44,0.68,0.84,0.84c0.78,0.32,1.68-0.06,1.99-0.84c0.76-1.87,1.14-3.74,1.41-5.6
	c0.12-0.88,0.19-1.75,0.25-2.63c0.51-0.04,1.02-0.08,1.53-0.15c1.71-0.24,3.41-0.54,5.1-1.15c0.28-0.1,0.51-0.33,0.6-0.64
	C497.14,162.41,496.84,161.88,496.33,161.73z"/>
</svg>
